<?xml version="1.0" encoding="utf-8"?>
<!-- Generator: Adobe Illustrator 24.0.3, SVG Export Plug-In . SVG Version: 6.00 Build 0)  -->
<svg version="1.1" id="Layer_1" xmlns="http://www.w3.org/2000/svg" xmlns:xlink="http://www.w3.org/1999/xlink" x="0px" y="0px"
	 viewBox="0 0 24 24" style="enable-background:new 0 0 24 24;" xml:space="preserve">
<style type="text/css">
	.st0{fill:#A3A3A3;}
</style>
<path class="st0" d="M15,12c0,1.7-1.3,3-3,3s-3-1.3-3-3c0-0.2,0-0.4,0.1-0.6C10.5,12,12,10.5,11.5,9c0.2,0,0.4,0,0.5,0
	C13.7,9,15,10.3,15,12z M12,5C4.4,5,0,11.6,0,11.6S4.8,19,12,19c7.7,0,12-7.4,12-7.4S19.7,5,12,5z M12,17c-2.8,0-5-2.2-5-5
	c0-2.8,2.2-5,5-5c2.8,0,5,2.2,5,5C17,14.8,14.8,17,12,17z"/>
</svg>
