<?xml version="1.0" encoding="utf-8"?>
<!-- Generator: Adobe Illustrator 24.0.1, SVG Export Plug-In . SVG Version: 6.00 Build 0)  -->
<svg version="1.1" id="Layer_1" xmlns="http://www.w3.org/2000/svg" xmlns:xlink="http://www.w3.org/1999/xlink" x="0px" y="0px"
	 viewBox="0 0 2405.5 1385.5" style="enable-background:new 0 0 2405.5 1385.5;" xml:space="preserve">
<style type="text/css">
	.st0{fill:#F5C801;}
	.st1{fill:#B5B1B1;}
	.st2{fill:#010101;}
	.st3{fill:#B5B1B0;}
	.st4{fill:#636363;}
	.st5{fill:#F9E070;}
	.st6{fill:#020201;}
	.st7{fill:#F7E68F;}
	.st8{fill:#F5C800;}
	.st9{fill:#F3CE0A;}
	.st10{fill:#E9C108;}
	.st11{fill:#CBA602;}
</style>
<g id="h3l810.tif">
	<g>
		<g>
			<path class="st0" d="M984.8,1110.5c1.4-1,2-2.6,2.6-4.2c5.5-15.8,10.8-31.6,16.4-47.4c5.2-14.5,10.1-29.1,15.3-43.6
				c3-8.4,6.1-16.8,9-25.2c2.9-8.4,6.1-16.8,8.8-25.3c2.7-8.5,6-16.8,9-25.2c2.9-8.3,5.9-16.5,8.6-24.9c1-3.1,3.6-5.8,2.2-9.5
				c-1.6-1.4-3.5-0.7-5.2-0.7c-86,0-171.9,0-257.9,0c-2.8,0-5.7,0.1-8.5,0.1c0-28.2-0.1-56.3-0.1-84.5c0-8.3,0.1-16.7,0.1-25
				c1.7,0,3.3,0.1,5,0.1c99.8,0,199.7,0,299.5,0c1.3,0,2.7,0,4,0c2.4,0,3.6-0.9,4.5-3.5c3.7-11,8-21.7,12-32.6
				c3-8.2,5.8-16.6,8.8-24.8c2.9-8.1,6.1-16.1,9.1-24.1c2.8-7.6,5.4-15.3,8.2-22.9c2.9-8.1,5.8-16.2,8.8-24.3
				c3-8.2,6.1-16.4,9.1-24.6c3.3-9,6.7-18,9.9-27c3-8.2,5.8-16.5,8.8-24.8c3.7-10.1,7.5-20.2,11.1-30.3c3.1-8.4,6-16.8,9-25.2
				c2-5.5,4.1-10.8,6.1-16.3c3.1-8.4,6-16.8,9.1-25.2c2.1-5.9,4.4-11.8,6.6-17.7c3.1-8.6,6.1-17.1,9.2-25.7c3-8.2,6.2-16.4,9.2-24.6
				c2.9-7.8,5.6-15.6,8.4-23.4c3.1-8.6,6.3-17.1,9.4-25.6c3-8.4,5.8-16.9,9-25.2c1.6-4.3,3.6-8.5,3-13.3c-0.1-0.5,0.5-1.2,0.8-1.8
				c4.3-9,11.9-14.4,20.3-18.9c5.9-3.2,12.2-5.3,18.5-7.1c9.1-2.5,18.2-5.1,27.6-6c5.1-0.5,10.1-1.9,15.2-2.4
				c17.4-1.6,34.9-2.3,52.4-1.3c12.9,0.7,25.9,1.6,38.6,4.1c6.3,1.2,12.7,2.4,18.9,4.1c7,1.8,14.1,3.6,21,5.8
				c13.7,4.4,26.9,9.7,36.3,21.3c5.2,6.5,7.9,13.7,4.8,22.1c-3,8.4-6.1,16.8-9.1,25.2c-3,8.4-5.8,16.9-8.9,25.3
				c-2.2,6.1-4.6,12.1-6.8,18.1c-2.9,7.9-5.6,15.9-8.5,23.9c-3.3,9-6.6,18-9.7,27.1c-2.8,8.3-6.1,16.5-8.7,24.9
				c-2.5,7.9-5.5,15.6-8.3,23.4c-3,8.4-6.1,16.8-9.1,25.2c-3.2,8.9-6.5,17.7-9.7,26.6c-2.7,7.6-5.4,15.3-8.1,22.9
				c-3.2,9-6.6,18-9.8,27.1c-2.4,6.9-4.7,13.8-7.1,20.7c-0.6,0.1-1.3,0.3-1.9,0.4c-1.3-1.4-1.4-3.3-1.8-5.1c-1.1-4.5-2-9.1-3.3-13.5
				c-2.5-7.9-4.1-16-6.5-23.9c-2.6-8.5-4.5-17.3-6.8-25.9c-2.8-10.6-5.7-21.1-8.4-31.6c-2.2-8.3-4.2-16.7-6.4-25
				c-2.2-8.3-4.4-16.6-6.6-24.9c-2.3-8.6-4.5-17.2-6.8-25.9c-2-7.7-3.9-15.4-6.1-23c-2.9-10-5.4-20.1-7.9-30.2c-0.5-2-1.7-2.8-3.4-3
				c-1.3-0.2-2.7-0.1-4-0.1c-26.8,0-53.7,0-80.5,0c-5.2,0-10.3,0-15.5,0c-1.5,0-3.1-0.3-3.7,1.6c1.6,4.9,3.2,9.8,4.6,14.7
				c2,7,3.8,14,5.9,20.9c2.3,7.6,4.8,15.1,7.1,22.7c3,10.1,5.9,20.3,8.9,30.4c3,10.2,6.1,20.3,9.1,30.5c3.8,13,7.3,26.1,11.4,39
				c2.9,9.3,5.6,18.7,8.4,28c3,10.1,5.8,20.3,8.9,30.4c4,13.3,7.8,26.7,12,39.9c4,12.6,7.3,25.4,11.2,38.1c3,9.8,5.7,19.7,8.9,29.4
				c3.3,10,5.4,20.4,8.7,30.4c2.9,9,5.5,18,8,27.1c0.5,1.8,0.6,3.6,0.7,5.4c-2.8,2.7-2.6,6.6-4,9.9c-2.6,6.1-4.5,12.4-6.7,18.7
				c-3,8.6-6.1,17.1-9.2,25.7c-3.1,8.6-6.1,17.1-9.2,25.7c-2.1,5.9-4.1,11.9-6.2,17.8c-2,5.8-4.2,11.5-6.3,17.3
				c-3,8.2-5.9,16.5-8.9,24.7c-3.2,8.9-6.5,17.7-9.7,26.6c-3,8.4-5.8,16.9-8.8,25.3c-2.8,7.8-5.6,15.5-8.4,23.3
				c-2.2,6.2-4.5,12.4-6.7,18.7c-2.9,8.2-5.8,16.5-8.8,24.7c-3.1,8.7-6.2,17.5-9.3,26.2c-2.1,5.8-4.2,11.5-6.3,17.2
				c-0.9,2.3-2.1,4.5-1.5,7.2c-2.1,3-2.8,6.7-4.1,10.1c-3.3,8.6-6.3,17.4-9.4,26.1c-2.9,8.1-5.8,16.1-8.7,24.2
				c-3.1,8.7-6.2,17.4-9.2,26.2c-2,5.9-4.6,11.6-6,17.8c-1.5,2-2.7,4.1-3.3,6.6c-0.7,3.1-2,6-3.1,8.9c-3.5,8.9-6.4,18-9.7,27
				c-3.1,8.4-6.1,16.8-9.1,25.2c-2.9,7.9-5.7,15.9-8.6,23.8c-2.3,6.4-4.6,12.7-6.9,19.1c-2.1,5.8-4.2,11.5-6.1,17.3
				c-1.9,5.7-4.5,11-8.7,15.4c-9.2,9.5-20.9,14.2-33.1,18.1c-4.6,1.4-9.3,2.4-13.9,3.6c-7.6,2-15.2,3.2-23,4.2
				c-4.8,0.6-10-0.3-14.4,2.7c-15.7,0-31.3,0-47,0c-2.4-1.6-5.1-1.9-7.9-2.1c-13.8-0.7-27.3-3.3-40.7-6.4c-13-3-25.9-6.8-38.1-12.4
				c-7.7-3.6-15.3-7.5-21.1-13.8c-7-7.5-10.5-15.8-5.8-26.3c2.3-5.1,3.8-10.6,5.7-15.9c3.1-8.9,6.2-17.8,9.3-26.7
				c2.8-8,5.9-15.8,8.5-23.8c3.8-11.8,8.2-23.4,12.2-35.1c1-3,3.1-5.8,2.4-9.3c3.5-9.4,7.4-18.8,10.3-28.4c2.7-8.7,6-17.1,8.8-25.8
				c4.5-13.5,9.7-26.7,14.2-40.2C982.8,1117.1,984.8,1114.1,984.8,1110.5z"/>
			<path class="st0" d="M1004,214.7c0.2-0.2,0.4-0.3,0.7-0.4c1.9,0,3.8-0.2,4.3-2.6c0.5-0.2,1-0.4,1.6-0.6c3,0.6,4.9-1.9,6.9-3.2
				c1.5-0.9,4.2-0.6,4.5-3.2c0.6-1.1,1.7-1.1,2.7-1.4c1.4,0.4,2.2,0,2.4-1.5c0.5-0.2,1-0.5,1.5-0.7c1.4,0.6,2.2,0.2,2.5-1.3
				c0.2-0.2,0.5-0.3,0.7-0.4c1.9-0.6,4.6,0.1,5.1-2.9c0.2-0.1,0.5-0.3,0.7-0.4c3.9-0.4,7.2-2,9.5-5.3c0.5-0.2,1.1-0.3,1.6-0.5
				c2.6-0.3,4.9-1.2,6.4-3.5c0.2-0.2,0.4-0.3,0.7-0.4c2-0.4,4.5,0.1,5.2-2.8c0.2-0.1,0.5-0.2,0.8-0.3c2.3,0.6,3.9,0.1,4.4-2.5
				c0.5-0.2,1.1-0.3,1.6-0.5c1.6,0.3,3.2,0.7,3.1-1.8c0.3-0.1,0.5-0.2,0.8-0.4c0.6,0.3,1.3,0.4,1.9,0.1c3.7-2,7.3-4.2,11.3-5.7
				c0.9-0.3,1.1-1.1,1.1-2c0.3-0.1,0.5-0.2,0.8-0.3c2.3,0.7,3.9,0,4.4-2.5c0.6-0.1,1.1-0.3,1.7-0.4c1.4,0.5,2.2-0.1,2.4-1.5
				c0.5-0.2,1-0.4,1.6-0.6c2.3,0.7,3.9,0.1,4.4-2.4c0.5-0.2,1.1-0.3,1.6-0.5c1.6,0.4,3.1,0.6,3.2-1.8c0.3-0.1,0.5-0.2,0.8-0.3
				c2.2,0.6,3.9,0.2,4.4-2.4c0.8-0.2,1.7-0.5,2.5-0.7c3.1-0.4,6-1,7.5-4.2c0.5-0.2,1-0.4,1.6-0.6c5.2-0.7,9.5-3.1,13.4-6.4
				c0.2-0.1,0.5-0.3,0.7-0.4c2-0.5,4.3-0.1,5.3-2.6c0.5-0.2,1-0.4,1.5-0.7c1,0.4,2,0.6,2.9,0c3.4-2.3,7-4,11-5.1
				c1-0.3,1.5-1.3,1.6-2.3c0.8-0.2,1.7-0.5,2.5-0.7c3.1-0.9,6.5-1.2,8.5-4.3c0.8-0.2,1.7-0.5,2.5-0.7c0.6,0.1,1.5,0.5,1.8,0.3
				c3.6-2.7,7.9-3.9,12.1-5.3c1-0.3,1.4-1.3,1.5-2.3c0.9-0.2,1.7-0.4,2.6-0.6c0.3,0.1,0.7,0.3,0.9,0.2c4.3-1.7,8.8-3,12.8-5.3
				c2.4-1.4,5-1.5,7.2-2.9c4.7-2.8,9.9-4.7,15.1-6.5c2.1-0.8,3.7-1.8,5.3-3.2c0.6-0.1,1.1-0.2,1.7-0.2c0.2,0.1,0.3,0.2,0.5,0.1
				c7-1.9,13.2-5.9,20.4-7.2c1-0.2,1.5-1.2,1.6-2.3c0.9-0.2,1.7-0.4,2.6-0.6c2.8,1.6,4.6-1.3,6.8-1.9c5.9-1.6,11.6-4.1,17.4-6.3
				c0.5-0.2,0.7-1,1.1-1.6c0.6-0.1,1.1-0.2,1.7-0.4c2.8,1,4.8-0.3,6.3-2.5c0.6-0.1,1.2-0.2,1.7-0.3c0.9,0.3,2,0.6,2.8-0.1
				c1.6-1.4,3.4-1.8,5.4-1.7c2.1,0,3.2-1.3,4.1-2.9c0.9-0.1,1.8-0.3,2.7-0.4c4.3-0.5,8.5-1.6,12.1-4.2c0.1-0.1,0.1-0.3,0.2-0.4
				c0.6-0.1,1.1-0.2,1.7-0.3c3.2,1.3,5.2-0.8,7.3-2.6c0.6-0.1,1.2-0.1,1.8-0.2c2,0.6,3.5,0.2,4.2-1.9c0.6-0.1,1.1-0.2,1.7-0.3
				c3.2,1.4,5.3-0.6,7.3-2.6c0.6-0.1,1.2-0.1,1.8-0.2c4.7-0.4,9.2-1.6,13.4-3.6c0.4-0.2,0.5-0.8,0.8-1.2c0.9-0.1,1.8-0.2,2.7-0.3
				c4.3-0.9,8.7-1.2,12.5-3.5c0.4-0.2,0.5-0.8,0.8-1.2c0.9-0.1,1.8-0.2,2.7-0.4c0.8,0.1,1.8,0.6,2.3,0.3c3.6-1.8,7.6-2.3,11.5-3.3
				c0.8-0.2,1.2-1,1.5-1.8c0.6-0.1,1.1-0.2,1.7-0.2c3.8,1.5,6.5-0.9,9.3-2.7c0.6-0.1,1.1-0.1,1.7-0.2c1.9,0.7,3.5,0.4,4.3-1.7
				c0.6-0.1,1.1-0.2,1.7-0.4c3.6,1,6.8,0.3,9.3-2.6c0.9-0.1,1.8-0.2,2.7-0.3c2.1,0.5,4.2,0.9,5.3-1.8c0.6-0.1,1.1-0.2,1.7-0.3
				c4,1.1,7.4,0.3,10.3-2.7c0.9-0.1,1.8-0.2,2.7-0.2c0.8,0.1,1.8,0.6,2.4,0.3c4.2-1.8,8.9-2,13.3-3.2c1-0.3,2.3-0.7,2.7-1.9
				c0.9-0.1,1.8-0.2,2.7-0.2c4.4,1.6,7.7-1.1,11.3-2.7c0.6,0,1.2-0.1,1.8-0.1c2.9,0.6,5.6,0.5,7.5-2.2c0.9-0.1,1.9-0.2,2.8-0.3
				c4.3,2.1,7.6-0.5,11-2.4c1.2-0.1,2.5-0.2,3.7-0.3c2.6,0.2,5.6,1.6,7.3-1.8c0.9-0.1,1.8-0.2,2.7-0.4c4.9,1.3,9.2,0,13.4-2.6
				c1.6-0.1,3.1-0.2,4.7-0.3c3.3,0.4,6.8,1.5,9.3-1.9c0.6-0.1,1.1-0.1,1.7-0.2c5.7,0.9,11.3,0.8,16.4-2.5c1.6-0.1,3.1-0.2,4.7-0.3
				c4.1,0.7,8.3,0.8,12.3-0.8c1.8-0.7,3.5-1,5.4-0.9c4.7,0.4,9.2-1.1,13.9-1.1c1.9,0,4.3,0,5.8-2c2.3-0.2,4.7-0.3,7-0.5
				c3.3,1.4,6.8,0.7,10.2,0.5c5-0.3,10-1.1,14.7-2.9c4.2-0.1,8.5-0.2,12.7-0.3c10.5,1.2,20.9-0.1,31.3-1.1c2.2-0.2,5,0.4,7-1.6
				c20.7,0,41.3,0,62,0c3.7,1.6,7.6,1.5,11.5,2c3.3,0.4,6.6,0.4,10,0.5c8.6,0.4,17.2,1.5,25.8,2.3c8,0.7,15.8,2,23.7,2.9
				c7.4,0.9,14.1,3.3,20.4,7.2c12.6,7.7,19.6,19.1,21.6,33.5c2.2,16.2-1.8,30.7-13,42.8c-5.3,5.7-12.2,9.7-19.2,13.1
				c-5,2.5-10,5-15.5,6.5c-6.9,1.9-13.8,4-20.9,4c-15.2,0-30.2,1.8-45.2,3.5c-13.6,1.6-27.3,3.5-40.8,6.1c-6.6,1.3-13.3,2.6-20,3.7
				c-9.1,1.5-18.1,4.1-27.1,6.2c-5.3,1.2-10.6,2.5-16,3.7c-3.4,0.8-6.7,1.9-10,2.9c-10.4,2.9-20.8,5.6-31,9.1
				c-6.9,2.3-14,4-20.9,6.2c-8.8,2.9-17.4,6.1-26.2,9.1c-5.9,2-12,3.8-17.9,5.9c-5.9,2.1-11.8,4.4-17.7,6.6c-8.2,3-16.4,6-24.6,9.1
				c-9.4,3.6-18.7,7.3-28.1,11.1c-7.7,3-15.3,6-22.9,9.2c-9,3.8-17.8,7.8-26.7,11.6c-8.5,3.7-17,7.3-25.4,11.2
				c-10.4,4.7-20.7,9.5-31,14.3c-11.5,5.4-23,10.9-34.5,16.5c-8.2,4-16.3,7.9-24.3,12.1c-8.8,4.7-17.8,8.9-26.6,13.5
				c-10.5,5.5-20.9,11.3-31.5,16.8c-13.2,6.9-26.1,14.2-39.1,21.5c-16,9-31.9,18.2-47.7,27.5c-19.2,11.3-38.2,23-57.2,34.8
				c-13.9,8.6-27.6,17.7-41.3,26.6c-20.3,13.2-40.2,26.9-60,40.8c-19.6,13.6-38.8,27.8-57.9,42.1c-16.1,12-31.9,24.3-47.6,36.9
				c-21.4,17.1-42.5,34.6-63,52.7c-14,12.3-27.9,24.7-41.4,37.5c-0.7,0.7-1.4,1.5-2.5,1.5c-0.1-0.3-0.2-0.7-0.2-1
				c0-38.1,0-76.3,0-114.4c0-0.8,0-1.7,0-2.5c0.1-1.6,1-2.4,2.6-2.4c1,0,2,0,3,0c31.8,0,63.6,0,95.4,0c5.7,0,5.7,0,5.7-5.5
				c0-27.1,0-54.3,0-81.4c0-1.5,0.4-3-0.4-4.4c-1.8-1.7-4.1-1.2-6.2-1.2c-55.1,0-110.2,0-165.4,0c-1.7,0-3.3-0.2-5-0.3
				c0-0.4-0.1-0.8-0.1-1.2l0.1-0.1c3.1-0.3,4.8-2.2,6.1-4.8l0,0c1.3,0.2,2.1-0.3,2.2-1.7c0.6-0.5,1.1-0.9,1.7-1.4
				c1.5,0.3,2.2-0.3,2.1-1.8l0,0c1.2,0.1,2-0.4,2.2-1.7c0.6-0.5,1.1-0.9,1.7-1.4c1.4,0.3,2.2-0.3,2.2-1.7c0.3-0.8,1-1,1.8-1.3
				c1.5,0.3,2.1-0.5,2.1-1.9c0.2-0.1,0.5-0.3,0.7-0.4c1.7,0.5,2.3-0.1,2.1-1.8c1.3-1,2.7-2,4-3.1c1.4,0.3,2.2-0.2,2.3-1.6
				c0.6-0.4,1.2-0.9,1.7-1.3c1.5,0.3,2.2-0.3,2.1-1.8c1.6-1.1,3.2-2.2,4.7-3.3c1.7,0.5,2.3-0.2,2.1-1.8c1.3-1,2.6-2.1,4-3.1
				c1.5,0.4,2.3-0.2,2.2-1.8l0,0c1.8-0.4,3.8-0.4,4-3c0.2-0.1,0.5-0.2,0.7-0.4c1.6,0.5,2.3-0.1,2.2-1.7c1.3-1,2.6-2.1,3.9-3.1
				c1.3,0.3,2.2-0.1,2.3-1.6c1.5-1.2,3.1-2.3,4.6-3.5c3.1-0.8,5.6-2.8,7.4-5.5c0.2-0.1,0.5-0.2,0.7-0.3c1.5,0.3,2.1-0.4,2.1-1.9
				c0.2-0.1,0.5-0.3,0.7-0.4c1.6,0.5,2.3,0,2.2-1.7l0,0c1.8-0.4,3.9-0.4,4-3c0.2-0.1,0.5-0.2,0.7-0.4c2.2,0.6,3.1-0.6,3.3-2.6
				c0.2-0.1,0.5-0.2,0.7-0.3c2.8-0.6,5.5-1.3,6.3-4.7c0.2-0.1,0.5-0.2,0.7-0.3c1.6,0.5,2.3-0.1,2.2-1.7l0,0c3.1-0.6,5.6-2,7-5l0,0
				c5.6-2,10.1-5.6,14.1-9.8c1.6-1.1,3.1-2.3,4.7-3.4c1.3,0.3,2.2-0.1,2.4-1.5c0.8-0.6,1.7-1.1,2.5-1.7c1.6,0.6,2.3-0.1,2.2-1.7l0,0
				c5.8-1.7,10.1-5.6,14.2-9.7c0.9-0.5,1.7-1.1,2.6-1.6c1.6,0.6,2.3,0,2.2-1.7l0,0c2.2,0.3,3.9-0.2,4.1-2.9c0.2-0.1,0.5-0.2,0.7-0.3
				c2.7,0.3,4.1-1.6,5.4-3.5c0.8-0.6,1.7-1.2,2.5-1.7c1.6,0.7,2.3,0.1,2.3-1.6l0,0c3.1-0.5,5.6-2,7.2-4.8c0.5-1.1,1.7-1.1,2.6-1.5
				c1.6,0.5,2.2-0.2,2.2-1.8c0.2-0.1,0.5-0.3,0.8-0.4c2.5-0.4,6.1-2.7,7.2-4.7l0,0c3.7,0.5,5.2-2.6,7.3-4.6c0.2-0.2,0.4-0.3,0.7-0.4
				c3.2-0.3,5.6-1.9,7.3-4.6c0.2-0.2,0.4-0.3,0.6-0.4c2-0.1,4-0.1,4.2-2.8c0.2-0.1,0.5-0.3,0.7-0.4c1.4,0.5,2.3,0.1,2.4-1.4
				c0.5-1.1,1.7-1.1,2.6-1.5c1.6,0.5,2.3-0.1,2.2-1.7c0.2-0.1,0.5-0.3,0.7-0.4c1.4,0.6,2.2,0.2,2.5-1.4c0.9-0.5,1.7-1.1,2.6-1.6
				c3.4-0.6,5.8-2.2,7.2-4.7c0.2-0.1,0.5-0.2,0.8-0.3c1.4,0.6,2.3,0.1,2.4-1.5c0.5-1.1,1.7-1.1,2.6-1.5c1.6,0.5,2.2-0.2,2.2-1.7
				c0.2-0.1,0.5-0.2,0.7-0.3c1.4,0.5,2.2,0.1,2.4-1.4c0.8-0.7,1.6-1.3,2.6-1.6c2.8-0.2,5.2-1.6,7.1-3.4c1.3-1.2,4.3-0.5,4.1-3.4
				c0.2-0.1,0.5-0.3,0.7-0.4c1.4,0.6,2.2,0.2,2.5-1.3c0.9-0.5,1.7-1,2.6-1.5c0.5,0.1,1.1,0.3,1.4,0.1c3.2-1.9,6.6-3.5,9.5-5.6
				c1.7-1.2,5.1-1.1,5.2-4.3c0.3-0.1,0.5-0.2,0.8-0.3c1.4,0.6,2.2,0.1,2.5-1.3c0.8-0.7,1.6-1.3,2.6-1.5c1.6,0.3,3.2,0.6,3.1-1.9
				c0.3-0.1,0.5-0.3,0.8-0.4c1.4,0.7,2.2,0.3,2.5-1.3c0.8-0.7,1.6-1.3,2.6-1.5C1003,216.7,1003.8,216.3,1004,214.7z"/>
			<path class="st1" d="M2406.9,930.5c-0.9,0-1.9,0.2-1.9,1.2c0.1,2.9-1,5.6-1,8.4c0,6.9-1.7,13.4-3.2,20
				c-3,13.7-7.5,26.9-14.1,39.4c-4.7,9-10.6,17.1-17.2,24.9c-11.6,13.6-26.1,23.4-42.1,30.6c-9.9,4.4-20.3,7.7-31.1,9.6
				c-5.4,0.9-10.9,1.3-16.2,2.2c-10.9,1.9-21.8,1.8-32.7,1.8c-7.8,0-15.4-1.7-23.2-2.3c-5.6-0.4-10.9-2.4-16.6-2.8
				c-4-0.3-7.6-2.2-11.3-3.4c-9.4-3-18.6-6.6-27.1-11.8c-11.8-7.3-22.1-16.1-31.2-26.6c-8.3-9.5-14.4-20.2-19.5-31.4
				c-4.1-8.9-6.9-18.4-8.9-28.1c-1.5-7.1-2.6-14.3-4.2-21.3c-0.2-1-0.5-2-0.5-2.9c0.4-7.5-0.7-14.9-1.3-22.3
				c-1-11.3-0.6-22.6-0.6-33.9c-0.1-153.8-0.1-307.6-0.1-461.5c0-6.7,0-6.7,6.5-6.7c29.7,0,59.3,0,89,0c1.6,0,3.3-0.3,5,0.4
				c1.1,1.7,0.6,3.5,0.6,5.3c0,131.3,0,262.6,0,394c0,32.5,0.2,65-0.1,97.5c-0.1,10,0.7,20,3.3,29.5c3.1,11.2,8.6,21.3,19.2,27.9
				c7.6,4.7,15.7,6.3,24.2,7.7c8.5,1.5,16.5-0.4,24.6-1.5c5.8-0.8,11.3-3.9,16-7.6c8.5-6.6,14-15.1,16.8-25.6
				c2.8-10.3,3.9-20.8,3.9-31.4c0-163.5,0-327,0-490.5c0-1.6,0-3.3,0-4.6c0.4-0.4,0.5-0.6,0.6-0.7c0.1-0.1,0.3-0.3,0.4-0.3
				c31.3-0.1,62.6-0.1,94-0.2C2406.9,585.9,2406.9,758.2,2406.9,930.5z"/>
			<path class="st2" d="M2406.9,1214.5c-3,0-6,0-9,0c-393.7,0-787.4,0-1181.2,0c-2,0-4,0-6,0c1.4-6.1,4-11.9,6-17.8
				c3-8.8,6.1-17.5,9.2-26.2c2.9-8.1,5.8-16.1,8.7-24.2c3.1-8.7,6.1-17.5,9.4-26.1c1.3-3.4,1.9-7,4.1-10.1c2.2,0.1,4.3,0.2,6.5,0.2
				c381.3,0,762.6,0,1143.8,0c2.8,0,5.7,0.1,8.5,0.2C2406.9,1145.2,2406.9,1179.9,2406.9,1214.5z"/>
			<path class="st3" d="M948.3,1214.7c-2.5-0.1-5-0.2-7.5-0.2c-313.3,0-626.7,0-940,0c0-34.7,0-69.3,0-104c1.2,0,2.3,0,3.5,0
				c326.8,0,653.7,0,980.5,0c0,3.6-2,6.6-3.1,9.9c-4.6,13.5-9.8,26.7-14.2,40.2c-2.9,8.6-6.2,17.1-8.8,25.8
				C955.7,1195.9,951.8,1205.3,948.3,1214.7z"/>
			<path class="st4" d="M2.9,1060.5c-0.7,0-1.4,0-2,0.1c0-215.7,0-431.3,0-647c0.7,0.1,1.4,0.2,2.1,0.3c0,3.5-0.1,7-0.1,10.5
				c0,209.2,0,418.5,0,627.7C2.9,1054.8,2.9,1057.6,2.9,1060.5z"/>
			<path class="st5" d="M1684.9,0.5c-2,2-4.8,1.4-7,1.6c-10.4,1-20.8,2.3-31.3,1.1c0.4-1.3,1.3-1.5,2.5-1.6c1,0,2.3,0.3,2.7-1.1
				C1662.9,0.5,1673.9,0.5,1684.9,0.5z"/>
			<path class="st1" d="M1985.8,736.9c0,55.3,0,110.7,0,166c0,9.1-0.6,18.2-1.8,27.2c-0.6,4.6-0.2,9.2-1.1,13.9
				c-2.3,12.7-5,25.2-9.6,37.3c-7.6,20.3-19,38.2-35.5,52.6c-10.8,9.4-22.9,16.6-36.2,22c-7.6,3-15.3,5.6-23.1,7.3
				c-7.5,1.7-15.2,3-23,3.6c-8.7,0.7-17.4,1.7-26.2,1.8c-9.2,0.1-18.2-1.3-27.2-2.2c-9.7-1-19.2-3.2-28.5-6.1
				c-10.5-3.2-20.6-7.8-30.1-13.4c-11-6.4-20.4-14.7-28.9-24.1c-6.9-7.6-12.4-16.2-17.1-25.3c-5.1-9.7-9.1-19.7-11.8-30.2
				c-1.6-6.2-3-12.5-4.3-18.8c-1.4-6.9-1.6-13.8-2.4-20.6c-0.7-6.7-1.4-13.5-1.4-20.3c0.1-105,0.1-210,0.1-315c0-9.3,0-18.7,0-28
				c0-7.1,1.2-14.2,1.7-21.2c0.4-6.1,1-12.1,2.1-18.2c1.9-9.9,4.3-19.5,7.6-29.1c4-11.8,9.6-22.6,16.3-33c5.9-9.1,13.4-17,21.5-24.1
				c7.6-6.6,16.1-12.2,25.2-16.5c7.9-3.7,16-6.9,24.4-9.4c5.7-1.7,11.7-2.1,17.3-4.2c3.2-1.2,6.6-0.7,9.8-1.1
				c11.7-1.5,23.4-3,35.2-2.2c9.7,0.7,19.5,1.3,29.1,3.1c19.7,3.7,38.6,9.8,55.6,21c12.6,8.3,23.2,18.5,32.2,30.7
				c7.2,9.8,12.8,20.4,17.1,31.7c4,10.8,6.9,21.9,9,33.3c1.8,9.5,1.5,19.1,3,28.6c1.1,7.3,0.8,14.6,0.8,21.9
				C1985.9,629.6,1985.8,683.3,1985.8,736.9z M1778.9,736.8C1778.9,736.8,1778.9,736.8,1778.9,736.8c0,59.8,0.1,119.6-0.1,179.4
				c0,12.3,2.1,24,7.2,35c4.5,9.8,11.7,17.1,21.8,21.3c5.7,2.3,11.6,3.3,17.7,4.2c9.5,1.5,18.5-0.2,27.3-3c9.5-3,17.2-9.1,22.3-18
				c3.4-5.9,5.8-12,7.2-18.8c1.6-7.8,2.5-15.6,2.5-23.6c-0.1-118.8,0-237.6-0.1-356.3c0-12-2.3-23.6-7.4-34.6
				c-7.1-15.3-19.6-23-35.6-24.8c-9.1-1-18.4-1.3-27.7,1.5c-8.7,2.6-16.2,6.6-21.9,13.6c-9.4,11.4-13.2,25.2-13.3,39.5
				C1778.7,613.9,1778.9,675.4,1778.9,736.8z"/>
			<path class="st3" d="M1357.9,801.3c-0.1-1.8-0.2-3.5-0.7-5.4c-2.6-9.1-5.2-18.1-8-27.1c-3.2-10-5.3-20.4-8.7-30.4
				c-3.2-9.7-5.9-19.6-8.9-29.4c-3.9-12.6-7.2-25.5-11.2-38.1c-4.2-13.3-8-26.6-12-39.9c-3-10.1-5.8-20.3-8.9-30.4
				c-2.8-9.3-5.5-18.7-8.4-28c-4.1-12.9-7.6-26-11.4-39c-3-10.2-6.1-20.3-9.1-30.5c-3-10.1-5.9-20.3-8.9-30.4
				c-2.3-7.6-4.8-15.1-7.1-22.7c-2.1-7-3.9-14-5.9-20.9c-1.4-4.9-3.1-9.8-4.6-14.7c0.6-1.9,2.2-1.6,3.7-1.6c5.2,0,10.3,0,15.5,0
				c26.8,0,53.7,0,80.5,0c1.3,0,2.7-0.1,4,0.1c1.7,0.3,2.9,1,3.4,3c2.5,10.1,5,20.2,7.9,30.2c2.2,7.6,4.1,15.3,6.1,23
				c2.3,8.6,4.5,17.2,6.8,25.9c2.2,8.3,4.5,16.6,6.6,24.9c2.2,8.3,4.2,16.7,6.4,25c2.8,10.6,5.7,21.1,8.4,31.6
				c2.3,8.6,4.1,17.4,6.8,25.9c2.4,7.9,4.1,16,6.5,23.9c1.4,4.4,2.2,9,3.3,13.5c0.4,1.7,0.5,3.6,1.8,5.1c0.1,0.7,0.1,1.4,0.2,2.1
				c0,1.8,0.1,3.6,0.6,5.4c2.6,8.3,4.8,16.8,6.9,25.2c2.1,8.8,5.1,17.4,6.4,26.4c0.1,0.5,0.4,0.9,0.6,1.5c2.9,0,4.3-1.6,4.3-4.3
				c0-3.3,1.1-6.1,2.2-9.1c1.2-3.2,1.9-6.7,2.6-10c2.6-11.6,5.9-23,8.9-34.4c2.2-8.4,4.3-16.9,6.8-25.3c3.2-11.1,5.7-22.4,8.6-33.5
				c2-7.8,4.7-15.5,6.3-23.4c1.1-5.2,2.8-10.2,3.9-15.3c1.1-4.7,2-9.7,3.9-14.3c1.3-3.2,1.8-6.6,2.7-10c2.5-9.5,4.9-19.1,7.5-28.6
				c1.2-4.4,2.4-8.9,3.5-13.4c1-4.1,1.9-8.3,3-12.4c2.6-9.2,5-18.4,7.2-27.7c2.4-9.9,5.4-19.7,8.2-29.9c31.7,0,63.4,0,95.7,0
				c-1.1,4.2-1.9,8.4-3.4,12.3c-1.5,3.9-2.2,7.9-3.6,11.8c-1.8,5.1-3,10.4-4.8,15.5c-1.6,4.5-2.2,9.3-3.7,13.8
				c-2.1,6.1-3.8,12.3-5.6,18.4c-2.4,8.2-4.8,16.5-7.2,24.6c-2,6.8-4,13.6-6.2,20.3c-3.1,9.7-5.6,19.6-8.7,29.4
				c-2.5,7.7-4.6,15.5-7,23.3c-1.3,4.4-3.1,8.7-3.9,13.2c-0.7,3.5-1.8,7-3,10.4c-2.6,8.1-4.9,16.4-7.2,24.6
				c-2.9,10.1-6.6,20-9.3,30.2c-1.8,6.8-4.1,13.6-5.9,20.4c-1.8,6.8-3.6,13.7-6.2,20.3c-1.5,3.7-2.1,7.6-3.3,11.4
				c-2.7,8.3-5.2,16.7-7.5,25.1c-1.9,7-3.9,14-6,20.9c-2.3,7.5-4.4,15.2-6.8,22.7c-2.1,6.7-4.2,13.5-6,20.4
				c-1.1,4.1-2.6,8.1-3.6,12.3c-1.2,5-3.1,9.7-4.3,14.7c-1,4-2,8-3.6,11.8c-1.1,2.8-1.3,5.4-1.3,8.3c0,68.3,0,136.7,0,205
				c0,1.7,0,3.3,0,4.9c-3.6,1.1-92.4,1.5-100.4,0.5c-1.2-1.4-0.6-3.2-0.6-4.8c0-67.8,0-135.7,0-203.5c0-5-1.1-9.7-2.5-14.6
				c-2.8-10.2-6.6-20-8.7-30.4C1361.3,804.6,1359.9,802.7,1357.9,801.3z"/>
			<path class="st6" d="M714.7,412.6c1.7,0.1,3.3,0.3,5,0.3c55.1,0,110.2,0,165.4,0c2.1,0,4.4-0.5,6.2,1.2c0.8,1.4,0.4,2.9,0.4,4.4
				c0,27.1,0,54.3,0,81.4c0,5.4,0,5.5-5.7,5.5c-31.8,0-63.6,0-95.4,0c-1,0-2-0.1-3,0c-1.6,0-2.5,0.9-2.6,2.4c-0.1,0.8,0,1.7,0,2.5
				c0,38.1,0,76.3,0,114.4c0,0.3,0.1,0.7,0.2,1c-0.7,1.4-0.6,2.9-0.6,4.4c0,53.9,0,107.8,0,161.8c0,1.2,0,2.3,0.6,3.4
				c0,8.3-0.1,16.7-0.1,25c0,28.2,0.1,56.3,0.1,84.5c-0.7,1.2-0.7,2.5-0.7,3.9c0.1,50.1,0.2,100.3,0.2,150.4c0,0.3-0.2,0.6-0.3,0.9
				c-3.6,1.2-95.9,1.3-100.7,0c0-2,0-4.2,0-6.3c0-48.1,0-96.3,0-144.4c0-1.5,0.2-3-0.7-4.4c0.8-1.4,0.5-2.9,0.5-4.4
				c0-33.5,0-66.9,0-100.4c0-1.6,0.3-3.3-0.6-4.9c0.3-0.8,0.8-1.5,0.8-2.3c0-17.6,0-35.3,0-52.9c0-1,0.5-2.5-1.3-2.7
				c0.8-1.4,0.5-2.9,0.5-4.4c0-74.1,0-148.3,0-222.4c0-4.9-0.1-5-5-5c-24,0-48,0-72,0c-1.8-1.2-3.9-0.6-5.9-0.6
				c-7.3-0.1-14.6,0-22.2,0c0-30.5,0-60.5,0-90.4c1.1-1.2,2.3-0.9,3.4-0.9c42.3,0,84.6,0,127,0c1.8,0,3.7,0.6,5.3-0.8
				C713.9,412.6,714.3,412.6,714.7,412.6z"/>
			<path class="st7" d="M1412,647c-0.1-0.7-0.1-1.4-0.2-2.1c0.6-0.1,1.3-0.3,1.9-0.4C1414.1,645.9,1413.2,646.5,1412,647z"/>
			<path class="st2" d="M2.9,1060.5c0-2.8,0-5.7,0-8.5c0-209.2,0-418.5,0-627.7c0-3.5,0.1-7,0.1-10.5c1.5-0.1,3-0.3,4.5-0.3
				c86.3,0,172.7,0,259,0c1,0,2-0.1,3.3,0.7c0,29.7,0,59.6,0,90.2c-8.9,1.1-18.2,0.3-27.4,0.4c-9.2,0.1-18.3,0-27.5,0
				c-9.3,0-18.7,0-28,0c-9.2,0-18.3,0-27.5,0c-9.3,0-18.7,0-28,0c-9.1,0-18.3,0-27,0c-0.5,0.5-0.7,0.6-0.8,0.7
				c-0.1,0.1-0.3,0.3-0.3,0.4c-0.1,1-0.3,2-0.3,2.9c0,64.2,0.1,128.3,0.1,192.5c0,0.3,0.3,0.6,0.8,1.6c43,0,86.3,0,129.9,0
				c0,30.7,0,60.6,0,91.2c-5.5,0.4-10.9,0.1-16.3,0.2c-5.3,0-10.7,0-16,0c-5.5,0-11,0-16.5,0s-11,0-16.5,0c-5.3,0-10.7,0-16,0
				c-5.5,0-11,0-16.5,0c-5.3,0-10.7,0-16,0c-5.5,0-10.9,0-16.9,0c0,89,0,177.4,0,265.2c-1.3,1.5-2.3,1.3-3.3,1.3
				c-31.3,0-62.7,0-94,0C4.9,1060.8,3.9,1060.6,2.9,1060.5z"/>
			<path class="st8" d="M605.9,505.4c24,0,48,0,72,0c4.9,0,5,0.1,5,5c0,74.1,0,148.3,0,222.4c0,1.5,0.3,3-0.5,4.4
				c-1,0.9-2.1,1.7-2.9,2.7c-12.1,16.9-24.2,33.9-34.9,51.8c-0.7,1.1-1.1,2.1,0.4,3.8c11.2,0,23,0,34.8,0c0,36.2,0,72.5,0,108.7
				c-1.7,0.1-3.3,0.3-5,0.3c-63,0-126,0-189.1,0c-1.7,0-3.3-0.2-5-0.3c0-85.6,0-171.1,0-256.7c0-2.2-0.1-4.3-0.2-6.5
				c-0.2-1.5,0.9-2.4,1.8-3.4c5.5-6.5,10.8-13,16.4-19.4c13.1-15,26.3-29.9,40-44.4c18.7-19.8,38-39.1,57.5-58.1
				c2.6-2.5,5.2-5.1,8-7.4C605.3,507.4,605.8,506.6,605.9,505.4z"/>
			<path class="st6" d="M375.8,804.1c0.1-2.7,0.3-5.3,0.3-8c0-124.9,0-249.8,0-374.7c0-2.3,0-4.6,0-6.9c3.5-1.3,93.5-1.7,100.6-0.5
				c0.7,0.7,0.5,1.5,0.5,2.3c0,72,0,143.9,0,215.9c0,3.1-0.6,6.3,0.3,9.4c0,2.8,0,5.6,0,8.5c0,83.1,0,166.2,0,249.3
				c0,1.8,0.1,3.7,0.2,5.5c-0.9,1.6-0.5,3.2-0.5,4.9c0,49.8,0.1,99.6,0.1,149.4c0,0.3-0.2,0.6-0.3,1.3c-33.4,0-66.9,0-100.3,0
				c-1-2.1-0.4-4-0.4-5.8c0-51.5,0-103,0-154.4c0-1.8,0-3.7-0.7-5.4c0.1-1.5,0.2-3,0.2-4.5c0-24.3,0-48.5,0-72.8
				C375.7,813,375.7,808.6,375.8,804.1z"/>
			<path class="st9" d="M477.5,904.8c-0.1-1.8-0.2-3.7-0.2-5.5c0-83.1,0-166.2,0-249.3c0-2.8,0-5.6,0-8.5c1.1,0,2.3,0.2,3.3-0.5
				c0.1,2.2,0.2,4.3,0.2,6.5c0,85.6,0,171.1,0,256.7C479.8,904.4,478.6,904.6,477.5,904.8z"/>
			<path class="st10" d="M375.8,804.1c0,4.5-0.1,9-0.1,13.4c0,24.3,0,48.5,0,72.8c0,1.5-0.1,3-0.2,4.5c-5.8-3-9.8-7.8-12.7-13.6
				c-3.6-7.3-5-15-3.8-23.1c0.8-5.1,1-10.2,3-15.1c0.6-1.5,1.3-3,2.2-4.4c1.9-2.9,3.1-6.1,3.7-9.7c0.9-5.9,3.5-11.4,5.6-17
				C374.5,809.4,374.7,806.6,375.8,804.1z"/>
			<path class="st11" d="M682.9,795.1c0.9,1.5,0.6,3.2,0.6,4.9c0,33.5,0,66.9,0,100.4c0,1.5,0.3,3-0.5,4.4c-0.4-0.1-0.8-0.3-1.3-0.4
				c0-36.3,0-72.7,0-109C682.2,795.3,682.5,795.2,682.9,795.1z"/>
			<path class="st9" d="M681.8,795.4c0,36.3,0,72.7,0,109c-0.6-0.1-1.3-0.1-1.9-0.2c0-36.2,0-72.5,0-108.7
				C680.5,795.5,681.1,795.4,681.8,795.4z"/>
			<path class="st5" d="M1231.9,103.4c-1.5,1.4-3.2,2.5-5.3,3.2c-5.1,1.9-10.3,3.7-15.1,6.5c-2.3,1.4-4.9,1.5-7.2,2.9
				c-4,2.3-8.5,3.6-12.8,5.3c-0.2,0.1-0.6-0.1-0.9-0.2c1.5-3.6,5.5-3.5,8.3-4.8c10.3-4.7,20.9-8.9,31.3-13.3
				C1230.8,102.7,1231.4,102.7,1231.9,103.4z"/>
			<path class="st5" d="M1601.9,6.3c-1.5,2-3.9,2-5.8,2c-4.7,0.1-9.2,1.5-13.9,1.1c-1.8-0.1-3.6,0.2-5.4,0.9
				c-4,1.5-8.1,1.5-12.3,0.8c2.6-2.6,6.1-1.9,9.2-2.4c7.8-1.3,15.7-1.3,23.4-2.9C1598.6,5.5,1600.4,5,1601.9,6.3z"/>
			<path class="st5" d="M1633.9,3.5c-4.8,1.7-9.8,2.5-14.7,2.9c-3.4,0.2-6.9,0.9-10.2-0.5c0.2-0.3,0.3-0.7,0.5-0.8
				c7.6-0.8,15.2-1.6,22.7-2.4C1632.9,2.6,1633.4,2.9,1633.9,3.5z"/>
			<path class="st5" d="M1283.9,83.4c-0.4,0.5-0.6,1.4-1.1,1.6c-5.7,2.2-11.4,4.7-17.4,6.3c-2.3,0.6-4,3.5-6.8,1.9
				c0.8-1.7,2.5-2,4-2.6c6.6-2.4,13.2-4.7,19.6-7.6C1282.8,82.7,1283.4,82.6,1283.9,83.4z"/>
			<path class="st5" d="M1256,93.8c-0.1,1.1-0.6,2.1-1.6,2.3c-7.2,1.4-13.4,5.4-20.4,7.2c-0.1,0-0.3-0.1-0.5-0.1
				c0.3-1,0.9-1.9,1.8-2.2C1242.4,99,1248.7,95,1256,93.8z"/>
			<path class="st5" d="M1463.9,29.3c-0.4,1.3-1.7,1.7-2.7,1.9c-4.4,1.1-9,1.4-13.3,3.2c-0.6,0.3-1.6-0.2-2.4-0.3
				c1.1-2.2,3.4-1.9,5.1-2.4c3.6-1.1,7.4-1.3,10.9-2.8C1462.4,28.5,1463.2,28.5,1463.9,29.3z"/>
			<path class="st5" d="M1559.9,11.4c-5.1,3.4-10.6,3.4-16.4,2.5c3.1-2.3,6.9-1.3,10.3-2.2C1555.7,11.2,1557.8,9.4,1559.9,11.4z"/>
			<path class="st5" d="M986.8,224.4c-0.2,3.2-3.5,3.1-5.2,4.3c-2.9,2.1-6.3,3.7-9.5,5.6c-0.3,0.2-0.9-0.1-1.4-0.1
				c0.9-2.8,3.7-3.1,5.7-4.4C979.6,227.6,982.9,225.4,986.8,224.4z"/>
			<path class="st5" d="M859,304.7c-4.2,4.1-8.4,8-14.2,9.7C848.9,310.3,853.2,306.5,859,304.7z"/>
			<path class="st5" d="M833,322.7c-4,4.3-8.5,7.8-14.1,9.8C821.4,329,828.7,323.9,833,322.7z"/>
			<path class="st5" d="M1188,121.7c-0.1,1-0.6,2-1.5,2.3c-4.2,1.4-8.4,2.6-12.1,5.3c-0.4,0.3-1.2-0.2-1.8-0.3
				c1-2.2,3.1-2.7,5.1-3.4C1181.1,124.3,1184.3,122.3,1188,121.7z"/>
			<path class="st5" d="M1159,134.7c-0.1,1.1-0.6,2.1-1.6,2.3c-4,1-7.6,2.8-11,5.1c-0.9,0.6-1.9,0.4-2.9,0
				C1148.1,138.3,1153.5,136.4,1159,134.7z"/>
			<path class="st5" d="M1394.9,47.3c-0.2,0.8-0.7,1.6-1.5,1.8c-3.8,1-7.8,1.5-11.5,3.3c-0.6,0.3-1.6-0.2-2.3-0.3
				c0.4-0.8,0.9-1.3,1.8-1.5C1385.8,49.4,1390.1,47.2,1394.9,47.3z"/>
			<path class="st5" d="M1360.9,57.4c-0.3,0.4-0.4,1-0.8,1.2c-4.2,2.1-8.7,3.2-13.4,3.6c0.5-2,2.6-1.8,3.9-2.4c3-1.2,6.3-1.5,9.1-3
				C1360.1,56.6,1360.6,57,1360.9,57.4z"/>
			<path class="st5" d="M1085.8,170.5c0,0.9-0.2,1.7-1.1,2c-4,1.5-7.6,3.6-11.3,5.7c-0.6,0.3-1.3,0.2-1.9-0.1
				C1075.6,174.3,1080.6,172.1,1085.8,170.5z"/>
			<path class="st5" d="M1527.9,16.4c-4.1,2.6-8.5,3.9-13.4,2.6C1518.8,17.3,1523.1,15.5,1527.9,16.4z"/>
			<path class="st5" d="M1376.9,52.4c-0.3,0.4-0.4,1-0.8,1.2c-3.9,2.2-8.3,2.6-12.5,3.5c0.4-0.5,0.7-1.2,1.3-1.4
				C1368.7,54.2,1372.6,52.4,1376.9,52.4z"/>
			<path class="st5" d="M1136,145.8c-3.9,3.3-8.2,5.8-13.4,6.4C1126.5,148.8,1131,146.7,1136,145.8z"/>
			<path class="st5" d="M1305.9,75.5c-0.9,1.6-2,3-4.1,2.9c-2,0-3.8,0.3-5.4,1.7c-0.8,0.7-1.8,0.4-2.8,0.1
				C1296.1,77.8,1302.8,75.3,1305.9,75.5z"/>
			<path class="st5" d="M1320.9,70.4c-0.1,0.2-0.1,0.4-0.2,0.4c-3.6,2.6-7.8,3.7-12.1,4.2C1311.1,72.8,1317.7,70.3,1320.9,70.4z"/>
			<path class="st5" d="M1477.9,26.4c-3.6,1.6-7,4.2-11.3,2.7C1470,26.8,1473.6,25.1,1477.9,26.4z"/>
			<path class="st5" d="M1500.9,21.4c-3.4,1.9-6.7,4.4-11,2.4C1493.4,22.3,1496.8,20.4,1500.9,21.4z"/>
			<path class="st5" d="M964.8,237.4c0.2,2.9-2.8,2.2-4.1,3.4c-1.9,1.8-4.3,3.2-7.1,3.4C956.4,240.3,960.6,238.9,964.8,237.4z"/>
			<path class="st5" d="M1442.9,34.3c-2.9,3-6.4,3.8-10.3,2.7C1435.8,35.5,1439,33.5,1442.9,34.3z"/>
			<path class="st5" d="M1022,204.7c-0.3,2.7-3,2.3-4.5,3.2c-2,1.3-3.9,3.8-6.9,3.2C1013.5,207.5,1017.5,205.6,1022,204.7z"/>
			<path class="st5" d="M1541.9,14.2c-2.5,3.4-6,2.3-9.3,1.9C1535.3,13.9,1538.4,13.1,1541.9,14.2z"/>
			<path class="st5" d="M1405.9,44.3c-2.8,1.8-5.5,4.2-9.3,2.7C1399.3,45,1402.2,43.5,1405.9,44.3z"/>
			<path class="st5" d="M1422.9,39.4c-2.5,3-5.7,3.7-9.3,2.6C1416.5,40.5,1419.3,38.8,1422.9,39.4z"/>
			<path class="st5" d="M1047,190.8c-2.3,3.3-5.6,4.9-9.5,5.3C1040.1,193.2,1043.4,191.8,1047,190.8z"/>
			<path class="st5" d="M1170,129.8c-2,3.1-5.4,3.4-8.5,4.3C1163.4,130.8,1166.8,130.4,1170,129.8z"/>
			<path class="st5" d="M788,354.7c-1.7,2.7-4.3,4.7-7.4,5.5C782.1,357.2,784.8,355.6,788,354.7z"/>
			<path class="st5" d="M1121,152.8c-1.5,3.2-4.4,3.8-7.5,4.2C1115.2,154.2,1118,153.3,1121,152.8z"/>
			<path class="st5" d="M1487.1,24.1c-1.9,2.7-4.6,2.8-7.5,2.2C1481.7,24.1,1484.1,23.1,1487.1,24.1z"/>
			<path class="st5" d="M1511.9,19.3c-1.7,3.4-4.6,2-7.3,1.8C1506.7,19.2,1509,18.4,1511.9,19.3z"/>
			<path class="st5" d="M906,273.7c-2.1,2-3.6,5.1-7.3,4.6C900.4,275.7,902.9,274.2,906,273.7z"/>
			<path class="st5" d="M939.8,252.5c-1.5,2.5-3.9,4.1-7.2,4.7C934,254.1,937.1,253.6,939.8,252.5z"/>
			<path class="st5" d="M1344.9,62.4c-2.1,1.9-4.1,4-7.3,2.6C1339.8,63.6,1341.8,61.7,1344.9,62.4z"/>
			<path class="st5" d="M1329.9,67.5c-2.1,1.9-4.1,3.9-7.3,2.6C1324.8,68.6,1326.8,66.7,1329.9,67.5z"/>
			<path class="st5" d="M914,268.7c-1.7,2.7-4.1,4.3-7.3,4.6C908.4,270.7,910.9,269.2,914,268.7z"/>
			<path class="st5" d="M898.7,278.4c-1,2-4.6,4.3-7.2,4.7C892.9,280,895.9,279.4,898.7,278.4z"/>
			<path class="st5" d="M886,286.7c-1.6,2.7-4.1,4.3-7.2,4.8C880.4,288.7,882.9,287.2,886,286.7z"/>
			<path class="st5" d="M818.8,332.5c-1.4,3-3.9,4.4-7,5C813.3,334.6,815.9,333.3,818.8,332.5z"/>
			<path class="st5" d="M1291.9,80.5c-1.5,2.3-3.5,3.5-6.3,2.5C1287.4,81.5,1289,79.3,1291.9,80.5z"/>
			<path class="st5" d="M808.9,339.5c-0.7,3.4-3.5,4.1-6.3,4.7C803.8,341.5,806.3,340.4,808.9,339.5z"/>
			<path class="st5" d="M720.8,406.4c-1.2,2.6-3,4.5-6.1,4.8C715.8,408.4,718.1,407.2,720.8,406.4z"/>
			<path class="st5" d="M1055,186.7c-1.5,2.3-3.7,3.2-6.4,3.5C1049.7,187.1,1052.5,187.3,1055,186.7z"/>
			<path class="st5" d="M1430.9,37.3c-1,2.7-3.1,2.3-5.3,1.8C1426.9,37.4,1428.6,36.4,1430.9,37.3z"/>
			<path class="st5" d="M874,294.7c-1.3,1.9-2.7,3.8-5.4,3.5C869.7,295.9,871.5,294.8,874,294.7z"/>
			<path class="st5" d="M1411.9,42.4c-0.8,2.1-2.3,2.4-4.3,1.7C1408.6,42.7,1409.6,41,1411.9,42.4z"/>
			<path class="st5" d="M1335.9,65.3c-0.7,2.1-2.2,2.5-4.2,1.9C1332.6,65.6,1333.6,64.2,1335.9,65.3z"/>
			<path class="st5" d="M1142,142.8c-0.9,2.5-3.3,2.2-5.3,2.6C1137.7,142.9,1140,143.1,1142,142.8z"/>
			<path class="st5" d="M1111,157.8c-0.6,2.5-2.2,3-4.4,2.4C1107.6,158.4,1109.1,157.7,1111,157.8z"/>
			<path class="st5" d="M867.9,298.5c-0.2,2.6-1.9,3.1-4.1,2.9C864.3,299.3,866.1,298.9,867.9,298.5z"/>
			<path class="st5" d="M1101,162.7c-0.5,2.5-2.1,3.2-4.4,2.4C1097.6,163.5,1099.1,162.7,1101,162.7z"/>
			<path class="st5" d="M1091,167.7c-0.5,2.5-2.1,3.2-4.4,2.5C1087.5,168.5,1089,167.7,1091,167.7z"/>
			<path class="st5" d="M1066,180.7c-0.5,2.6-2.1,3.1-4.4,2.5C1062.5,181.4,1064.1,180.7,1066,180.7z"/>
			<path class="st5" d="M1060.8,183.5c-0.6,3-3.2,2.4-5.2,2.8C1056.6,184,1059,184.2,1060.8,183.5z"/>
			<path class="st5" d="M1036.8,196.5c-0.5,3-3.2,2.3-5.1,2.9C1032.5,196.9,1035,197.2,1036.8,196.5z"/>
			<path class="st5" d="M918.8,265.5c-0.2,2.7-2.2,2.7-4.2,2.8C915.3,266.3,917.1,265.9,918.8,265.5z"/>
			<path class="st5" d="M797.8,347.5c-0.2,2.6-2.2,2.6-4,3C794.2,348.2,796.1,348,797.8,347.5z"/>
			<path class="st5" d="M1009,211.7c-0.5,2.4-2.4,2.5-4.3,2.6C1005.4,212.3,1007.1,211.9,1009,211.7z"/>
			<path class="st5" d="M766.8,370.5c-0.2,2.6-2.2,2.6-4,3C763.2,371.2,765.1,370.9,766.8,370.5z"/>
			<path class="st5" d="M801.9,344.5c-0.2,2-1.1,3.2-3.3,2.6C799.2,345.6,800.1,344.5,801.9,344.5z"/>
			<path class="st5" d="M1105.8,160.5c-0.1,2.4-1.6,2.1-3.2,1.8C1103.1,160.6,1104.4,160.4,1105.8,160.5z"/>
			<path class="st5" d="M995.7,219.4c0.1,2.5-1.5,2.2-3.1,1.9C993,219.6,994.3,219.4,995.7,219.4z"/>
			<path class="st5" d="M1070.7,178.4c0.1,2.5-1.5,2.2-3.1,1.8C1068.1,178.6,1069.4,178.4,1070.7,178.4z"/>
			<path class="st5" d="M769.7,368.4c0.1,1.7-0.6,2.2-2.2,1.7C767.9,369,768.6,368.4,769.7,368.4z"/>
			<path class="st5" d="M776,363.7c-0.1,1.5-1,1.9-2.3,1.6C773.9,364,774.7,363.4,776,363.7z"/>
			<path class="st5" d="M762.8,373.5c0.1,1.6-0.7,2.2-2.2,1.8C760.9,374.1,761.6,373.4,762.8,373.5z"/>
			<path class="st5" d="M756.7,378.3c0.2,1.6-0.4,2.3-2.1,1.8C754.9,379.1,755.5,378.4,756.7,378.3z"/>
			<path class="st5" d="M749.8,383.5c0.1,1.5-0.6,2.2-2.1,1.8C747.9,384.1,748.6,383.5,749.8,383.5z"/>
			<path class="st5" d="M745.9,386.6c-0.1,1.5-0.9,2-2.3,1.6C743.9,387,744.7,386.5,745.9,386.6z"/>
			<path class="st5" d="M739.7,391.3c0.2,1.7-0.5,2.3-2.1,1.8C737.9,392.1,738.6,391.5,739.7,391.3z"/>
			<path class="st5" d="M736.8,393.5c0,1.4-0.6,2.2-2.1,1.9C734.9,394.1,735.5,393.5,736.8,393.5z"/>
			<path class="st5" d="M733,396.7c-0.1,1.4-0.8,2-2.2,1.7C730.9,397.1,731.6,396.5,733,396.7z"/>
			<path class="st5" d="M729,399.8c-0.2,1.3-1,1.8-2.2,1.7C726.9,400.1,727.6,399.4,729,399.8z"/>
			<path class="st5" d="M726.8,401.5c0.1,1.5-0.6,2.1-2.1,1.8C724.9,402.1,725.6,401.5,726.8,401.5z"/>
			<path class="st5" d="M723,404.7c-0.1,1.4-0.9,1.9-2.2,1.7C720.9,405.1,721.6,404.5,723,404.7z"/>
			<path class="st5" d="M1027,201.8c-0.2,1.5-1,1.9-2.4,1.5C1025,202.1,1025.7,201.4,1027,201.8z"/>
			<path class="st5" d="M790.9,352.5c0,1.4-0.6,2.2-2.1,1.9C788.9,353.2,789.6,352.5,790.9,352.5z"/>
			<path class="st5" d="M922,263.7c-0.1,1.6-1,2-2.4,1.4C920,264,920.7,263.4,922,263.7z"/>
			<path class="st5" d="M1031,199.8c-0.3,1.5-1.1,1.9-2.5,1.3C1029,200,1029.8,199.4,1031,199.8z"/>
			<path class="st5" d="M793.8,350.5c0.1,1.7-0.7,2.2-2.2,1.7C791.9,351,792.6,350.4,793.8,350.5z"/>
			<path class="st5" d="M811.8,337.5c0.1,1.6-0.7,2.2-2.2,1.7C809.9,338.1,810.6,337.4,811.8,337.5z"/>
			<path class="st5" d="M1004,214.7c-0.2,1.5-1,2-2.4,1.5C1002,215,1002.7,214.4,1004,214.7z"/>
			<path class="st5" d="M840,317.8c-0.2,1.4-1.1,1.8-2.4,1.5C837.9,318,838.7,317.4,840,317.8z"/>
			<path class="st5" d="M844.7,314.4c0.1,1.7-0.5,2.3-2.2,1.7C842.9,315.1,843.6,314.4,844.7,314.4z"/>
			<path class="st5" d="M999,217.7c-0.2,1.6-1.1,1.9-2.5,1.3C997,217.9,997.8,217.4,999,217.7z"/>
			<path class="st5" d="M1095,165.8c-0.2,1.4-0.9,2-2.4,1.5C1093,166.1,1093.7,165.4,1095,165.8z"/>
			<path class="st5" d="M863.7,301.4c0.1,1.6-0.5,2.3-2.2,1.7C861.9,302.1,862.6,301.4,863.7,301.4z"/>
			<path class="st5" d="M878.8,291.4c0.1,1.7-0.6,2.3-2.3,1.6C876.9,292,877.6,291.4,878.8,291.4z"/>
			<path class="st5" d="M890.8,283.4c0.1,1.6-0.6,2.3-2.2,1.8C888.9,284.1,889.5,283.4,890.8,283.4z"/>
			<path class="st5" d="M990,222.8c-0.3,1.5-1.1,1.9-2.5,1.3C988,223,988.7,222.4,990,222.8z"/>
			<path class="st5" d="M951,245.8c-0.2,1.5-1.1,1.9-2.4,1.4C949,246,949.7,245.4,951,245.8z"/>
			<path class="st5" d="M926.8,260.5c0,1.6-0.7,2.2-2.2,1.7C924.9,261.1,925.6,260.4,926.8,260.5z"/>
			<path class="st5" d="M930,258.7c-0.2,1.5-1.1,1.9-2.5,1.4C928,258.9,928.8,258.4,930,258.7z"/>
			<path class="st5" d="M968,235.7c-0.2,1.5-1.1,1.9-2.5,1.3C966,235.9,966.8,235.4,968,235.7z"/>
			<path class="st5" d="M943,250.7c-0.1,1.6-1,2-2.4,1.5C941,251,941.7,250.4,943,250.7z"/>
			<path class="st5" d="M947.8,247.5c0,1.5-0.7,2.2-2.2,1.7C945.9,248.1,946.6,247.4,947.8,247.5z"/>
			<path class="st5" d="M714.7,412.6c-0.4,0-0.8,0-1.2,0.1c0.1-0.6,0.4-1.1,1.1-1.3C714.6,411.8,714.6,412.2,714.7,412.6z"/>
		</g>
	</g>
</g>
</svg>
