<?xml version="1.0" encoding="utf-8"?>
<!-- Generator: Adobe Illustrator 24.0.1, SVG Export Plug-In . SVG Version: 6.00 Build 0)  -->
<svg version="1.1" id="Layer_1" xmlns="http://www.w3.org/2000/svg" xmlns:xlink="http://www.w3.org/1999/xlink" x="0px" y="0px"
	 viewBox="0 0 2406 1386" style="enable-background:new 0 0 2406 1386;" xml:space="preserve">
<style type="text/css">
	.st0{fill:#F5C801;}
	.st1{fill:#B5B1B1;stroke:#000000;stroke-width:4;stroke-miterlimit:10;}
	.st2{fill:#FFFFFF;}
	.st3{fill:#B5B1B0;}
	.st4{fill:#636363;}
	.st5{fill:#F9E070;}
	.st6{fill:#B5B1B0;stroke:#000000;stroke-width:4;stroke-miterlimit:10;}
	.st7{fill:#FFFFFF;stroke:#000000;stroke-width:4;stroke-miterlimit:10;}
	.st8{fill:#F5C800;}
	.st9{fill:#F3CE0A;}
	.st10{fill:#E9C108;}
	.st11{fill:#CBA602;}
</style>
<path class="st0" d="M984,1110c1.4-1,2-2.6,2.6-4.2c5.5-15.8,10.8-31.6,16.4-47.4c5.2-14.5,10.1-29.1,15.3-43.6
	c3-8.4,6.1-16.8,9-25.2c2.9-8.4,6.1-16.8,8.8-25.3c2.7-8.5,6-16.8,9-25.2c2.9-8.3,5.9-16.5,8.6-24.9c1-3.1,3.6-5.8,2.2-9.5
	c-1.6-1.4-3.5-0.7-5.2-0.7c-86,0-171.9,0-257.9,0c-2.8,0-5.7,0.1-8.5,0.1c0-28.2-0.1-56.3-0.1-84.5c0-8.3,0.1-16.7,0.1-25
	c1.7,0,3.3,0.1,5,0.1c99.8,0,199.7,0,299.5,0c1.3,0,2.7,0,4,0c2.4,0,3.6-0.9,4.5-3.5c3.7-11,8-21.7,12-32.6c3-8.2,5.8-16.6,8.8-24.8
	c2.9-8.1,6.1-16.1,9.1-24.1c2.8-7.6,5.4-15.3,8.2-22.9c2.9-8.1,5.8-16.2,8.8-24.3c3-8.2,6.1-16.4,9.1-24.6c3.3-9,6.7-18,9.9-27
	c3-8.2,5.8-16.5,8.8-24.8c3.7-10.1,7.5-20.2,11.1-30.3c3.1-8.4,6-16.8,9-25.2c2-5.5,4.1-10.8,6.1-16.3c3.1-8.4,6-16.8,9.1-25.2
	c2.1-5.9,4.4-11.8,6.6-17.7c3.1-8.6,6.1-17.1,9.2-25.7c3-8.2,6.2-16.4,9.2-24.6c2.9-7.8,5.6-15.6,8.4-23.4
	c3.1-8.6,6.3-17.1,9.4-25.6c3-8.4,5.8-16.9,9-25.2c1.6-4.3,3.6-8.5,3-13.3c-0.1-0.5,0.5-1.2,0.8-1.8c4.3-9,11.9-14.4,20.3-18.9
	c5.9-3.2,12.2-5.3,18.5-7.1c9.1-2.5,18.2-5.1,27.6-6c5.1-0.5,10.1-1.9,15.2-2.4c17.4-1.6,34.9-2.3,52.4-1.3
	c12.9,0.7,25.9,1.6,38.6,4.1c6.3,1.2,12.7,2.4,18.9,4.1c7,1.8,14.1,3.6,21,5.8c13.7,4.4,26.9,9.7,36.3,21.3
	c5.2,6.5,7.9,13.7,4.8,22.1c-3,8.4-6.1,16.8-9.1,25.2c-3,8.4-5.8,16.9-8.9,25.3c-2.2,6.1-4.6,12.1-6.8,18.1
	c-2.9,7.9-5.6,15.9-8.5,23.9c-3.3,9-6.6,18-9.7,27.1c-2.8,8.3-6.1,16.5-8.7,24.9c-2.5,7.9-5.5,15.6-8.3,23.4
	c-3,8.4-6.1,16.8-9.1,25.2c-3.2,8.9-6.5,17.7-9.7,26.6c-2.7,7.6-5.4,15.3-8.1,22.9c-3.2,9-6.6,18-9.8,27.1
	c-2.4,6.9-4.7,13.8-7.1,20.7c-0.6,0.1-1.3,0.3-1.9,0.4c-1.3-1.4-1.4-3.3-1.8-5.1c-1.1-4.5-2-9.1-3.3-13.5c-2.5-7.9-4.1-16-6.5-23.9
	c-2.6-8.5-4.5-17.3-6.8-25.9c-2.8-10.6-5.7-21.1-8.4-31.6c-2.2-8.3-4.2-16.7-6.4-25c-2.2-8.3-4.4-16.6-6.6-24.9
	c-2.3-8.6-4.5-17.2-6.8-25.9c-2-7.7-3.9-15.4-6.1-23c-2.9-10-5.4-20.1-7.9-30.2c-0.5-2-1.7-2.8-3.4-3c-1.3-0.2-2.7-0.1-4-0.1
	c-26.8,0-53.7,0-80.5,0c-5.2,0-10.3,0-15.5,0c-1.5,0-3.1-0.3-3.7,1.6c1.6,4.9,3.2,9.8,4.6,14.7c2,7,3.8,14,5.9,20.9
	c2.3,7.6,4.8,15.1,7.1,22.7c3,10.1,5.9,20.3,8.9,30.4c3,10.2,6.1,20.3,9.1,30.5c3.8,13,7.3,26.1,11.4,39c2.9,9.3,5.6,18.7,8.4,28
	c3,10.1,5.8,20.3,8.9,30.4c4,13.3,7.8,26.7,12,39.9c4,12.6,7.3,25.4,11.2,38.1c3,9.8,5.7,19.7,8.9,29.4c3.3,10,5.4,20.4,8.7,30.4
	c2.9,9,5.5,18,8,27.1c0.5,1.8,0.6,3.6,0.7,5.4c-2.8,2.7-2.6,6.6-4,9.9c-2.6,6.1-4.5,12.4-6.7,18.7c-3,8.6-6.1,17.1-9.2,25.7
	c-3.1,8.6-6.1,17.1-9.2,25.7c-2.1,5.9-4.1,11.9-6.2,17.8c-2,5.8-4.2,11.5-6.3,17.3c-3,8.2-5.9,16.5-8.9,24.7
	c-3.2,8.9-6.5,17.7-9.7,26.6c-3,8.4-5.8,16.9-8.8,25.3c-2.8,7.8-5.6,15.5-8.4,23.3c-2.2,6.2-4.5,12.4-6.7,18.7
	c-2.9,8.2-5.8,16.5-8.8,24.7c-3.1,8.7-6.2,17.5-9.3,26.2c-2.1,5.8-4.2,11.5-6.3,17.2c-0.9,2.3-2.1,4.5-1.5,7.2
	c-2.1,3-2.8,6.7-4.1,10.1c-3.3,8.6-6.3,17.4-9.4,26.1c-2.9,8.1-5.8,16.1-8.7,24.2c-3.1,8.7-6.2,17.4-9.2,26.2
	c-2,5.9-4.6,11.6-6,17.8c-1.5,2-2.7,4.1-3.3,6.6c-0.7,3.1-2,6-3.1,8.9c-3.5,8.9-6.4,18-9.7,27c-3.1,8.4-6.1,16.8-9.1,25.2
	c-2.9,7.9-5.7,15.9-8.6,23.8c-2.3,6.4-4.6,12.7-6.9,19.1c-2.1,5.8-4.2,11.5-6.1,17.3c-1.9,5.7-4.5,11-8.7,15.4
	c-9.2,9.5-20.9,14.2-33.1,18.1c-4.6,1.4-9.3,2.4-13.9,3.6c-7.6,2-15.2,3.2-23,4.2c-4.8,0.6-10-0.3-14.4,2.7c-15.7,0-31.3,0-47,0
	c-2.4-1.6-5.1-1.9-7.9-2.1c-13.8-0.7-27.3-3.3-40.7-6.4c-13-3-25.9-6.8-38.1-12.4c-7.7-3.6-15.3-7.5-21.1-13.8
	c-7-7.5-10.5-15.8-5.8-26.3c2.3-5.1,3.8-10.6,5.7-15.9c3.1-8.9,6.2-17.8,9.3-26.7c2.8-8,5.9-15.8,8.5-23.8
	c3.8-11.8,8.2-23.4,12.2-35.1c1-3,3.1-5.8,2.4-9.3c3.5-9.4,7.4-18.8,10.3-28.4c2.7-8.7,6-17.1,8.8-25.8c4.5-13.5,9.7-26.7,14.2-40.2
	C982,1116.6,984,1113.6,984,1110z"/>
<path class="st0" d="M1003.1,214.2c0.2-0.2,0.4-0.3,0.7-0.4c1.9,0,3.8-0.2,4.3-2.6c0.5-0.2,1-0.4,1.6-0.6c3,0.6,4.9-1.9,6.9-3.2
	c1.5-0.9,4.2-0.6,4.5-3.2c0.6-1.1,1.7-1.1,2.7-1.4c1.4,0.4,2.2,0,2.4-1.5c0.5-0.2,1-0.5,1.5-0.7c1.4,0.6,2.2,0.2,2.5-1.3
	c0.2-0.2,0.5-0.3,0.7-0.4c1.9-0.6,4.6,0.1,5.1-2.9c0.2-0.1,0.5-0.3,0.7-0.4c3.9-0.4,7.2-2,9.5-5.3c0.5-0.2,1.1-0.3,1.6-0.5
	c2.6-0.3,4.9-1.2,6.4-3.5c0.2-0.2,0.4-0.3,0.7-0.4c2-0.4,4.5,0.1,5.2-2.8c0.2-0.1,0.5-0.2,0.8-0.3c2.3,0.6,3.9,0.1,4.4-2.5
	c0.5-0.2,1.1-0.3,1.6-0.5c1.6,0.3,3.2,0.7,3.1-1.8c0.3-0.1,0.5-0.2,0.8-0.4c0.6,0.3,1.3,0.4,1.9,0.1c3.7-2,7.3-4.2,11.3-5.7
	c0.9-0.3,1.1-1.1,1.1-2c0.3-0.1,0.5-0.2,0.8-0.3c2.3,0.7,3.9,0,4.4-2.5c0.6-0.1,1.1-0.3,1.7-0.4c1.4,0.5,2.2-0.1,2.4-1.5
	c0.5-0.2,1-0.4,1.6-0.6c2.3,0.7,3.9,0.1,4.4-2.4c0.5-0.2,1.1-0.3,1.6-0.5c1.6,0.4,3.1,0.6,3.2-1.8c0.3-0.1,0.5-0.2,0.8-0.3
	c2.2,0.6,3.9,0.2,4.4-2.4c0.8-0.2,1.7-0.5,2.5-0.7c3.1-0.4,6-1,7.5-4.2c0.5-0.2,1-0.4,1.6-0.6c5.2-0.7,9.5-3.1,13.4-6.4
	c0.2-0.1,0.5-0.3,0.7-0.4c2-0.5,4.3-0.1,5.3-2.6c0.5-0.2,1-0.4,1.5-0.7c1,0.4,2,0.6,2.9,0c3.4-2.3,7-4,11-5.1c1-0.3,1.5-1.3,1.6-2.3
	c0.8-0.2,1.7-0.5,2.5-0.7c3.1-0.9,6.5-1.2,8.5-4.3c0.8-0.2,1.7-0.5,2.5-0.7c0.6,0.1,1.5,0.5,1.8,0.3c3.6-2.7,7.9-3.9,12.1-5.3
	c1-0.3,1.4-1.3,1.5-2.3c0.9-0.2,1.7-0.4,2.6-0.6c0.3,0.1,0.7,0.3,0.9,0.2c4.3-1.7,8.8-3,12.8-5.3c2.4-1.4,5-1.5,7.2-2.9
	c4.7-2.8,9.9-4.7,15.1-6.5c2.1-0.8,3.7-1.8,5.3-3.2c0.6-0.1,1.1-0.2,1.7-0.2c0.2,0.1,0.3,0.2,0.5,0.1c7-1.9,13.2-5.9,20.4-7.2
	c1-0.2,1.5-1.2,1.6-2.3c0.9-0.2,1.7-0.4,2.6-0.6c2.8,1.6,4.6-1.3,6.8-1.9c5.9-1.6,11.6-4.1,17.4-6.3c0.5-0.2,0.7-1,1.1-1.6
	c0.6-0.1,1.1-0.2,1.7-0.4c2.8,1,4.8-0.3,6.3-2.5c0.6-0.1,1.2-0.2,1.7-0.3c0.9,0.3,2,0.6,2.8-0.1c1.6-1.4,3.4-1.8,5.4-1.7
	c2.1,0,3.2-1.3,4.1-2.9c0.9-0.1,1.8-0.3,2.7-0.4c4.3-0.5,8.5-1.6,12.1-4.2c0.1-0.1,0.1-0.3,0.2-0.4c0.6-0.1,1.1-0.2,1.7-0.3
	c3.2,1.3,5.2-0.8,7.3-2.6c0.6-0.1,1.2-0.1,1.8-0.2c2,0.6,3.5,0.2,4.2-1.9c0.6-0.1,1.1-0.2,1.7-0.3c3.2,1.4,5.3-0.6,7.3-2.6
	c0.6-0.1,1.2-0.1,1.8-0.2c4.7-0.4,9.2-1.6,13.4-3.6c0.4-0.2,0.5-0.8,0.8-1.2c0.9-0.1,1.8-0.2,2.7-0.3c4.3-0.9,8.7-1.2,12.5-3.5
	c0.4-0.2,0.5-0.8,0.8-1.2c0.9-0.1,1.8-0.2,2.7-0.4c0.8,0.1,1.8,0.6,2.3,0.3c3.6-1.8,7.6-2.3,11.5-3.3c0.8-0.2,1.2-1,1.5-1.8
	c0.6-0.1,1.1-0.2,1.7-0.2c3.8,1.5,6.5-0.9,9.3-2.7c0.6-0.1,1.1-0.1,1.7-0.2c1.9,0.7,3.5,0.4,4.3-1.7c0.6-0.1,1.1-0.2,1.7-0.4
	c3.6,1,6.8,0.3,9.3-2.6c0.9-0.1,1.8-0.2,2.7-0.3c2.1,0.5,4.2,0.9,5.3-1.8c0.6-0.1,1.1-0.2,1.7-0.3c4,1.1,7.4,0.3,10.3-2.7
	c0.9-0.1,1.8-0.2,2.7-0.2c0.8,0.1,1.8,0.6,2.4,0.3c4.2-1.8,8.9-2,13.3-3.2c1-0.3,2.3-0.7,2.7-1.9c0.9-0.1,1.8-0.2,2.7-0.2
	c4.4,1.6,7.7-1.1,11.3-2.7c0.6,0,1.2-0.1,1.8-0.1c2.9,0.6,5.6,0.5,7.5-2.2c0.9-0.1,1.9-0.2,2.8-0.3c4.3,2.1,7.6-0.5,11-2.4
	c1.2-0.1,2.5-0.2,3.7-0.3c2.6,0.2,5.6,1.6,7.3-1.8c0.9-0.1,1.8-0.2,2.7-0.4c4.9,1.3,9.2,0,13.4-2.6c1.6-0.1,3.1-0.2,4.7-0.3
	c3.3,0.4,6.8,1.5,9.3-1.9c0.6-0.1,1.1-0.1,1.7-0.2c5.7,0.9,11.3,0.8,16.4-2.5c1.6-0.1,3.1-0.2,4.7-0.3c4.1,0.7,8.3,0.8,12.3-0.8
	c1.8-0.7,3.5-1,5.4-0.9c4.7,0.4,9.2-1.1,13.9-1.1c1.9,0,4.3,0,5.8-2c2.3-0.2,4.7-0.3,7-0.5c3.3,1.4,6.8,0.7,10.2,0.5
	c5-0.3,10-1.1,14.7-2.9c4.2-0.1,8.5-0.2,12.7-0.3c10.5,1.2,20.9-0.1,31.3-1.1c2.2-0.2,5,0.4,7-1.6c20.7,0,41.3,0,62,0
	c3.7,1.6,7.6,1.5,11.5,2c3.3,0.4,6.6,0.4,10,0.5c8.6,0.4,17.2,1.5,25.8,2.3c8,0.7,15.8,2,23.7,2.9c7.4,0.9,14.1,3.3,20.4,7.2
	c12.6,7.7,19.6,19.1,21.6,33.5c2.2,16.2-1.8,30.7-13,42.8c-5.3,5.7-12.2,9.7-19.2,13.1c-5,2.5-10,5-15.5,6.5c-6.9,1.9-13.8,4-20.9,4
	c-15.2,0-30.2,1.8-45.2,3.5c-13.6,1.6-27.3,3.5-40.8,6.1c-6.6,1.3-13.3,2.6-20,3.7c-9.1,1.5-18.1,4.1-27.1,6.2
	c-5.3,1.2-10.6,2.5-16,3.7c-3.4,0.8-6.7,1.9-10,2.9c-10.4,2.9-20.8,5.6-31,9.1c-6.9,2.3-14,4-20.9,6.2c-8.8,2.9-17.4,6.1-26.2,9.1
	c-5.9,2-12,3.8-17.9,5.9c-5.9,2.1-11.8,4.4-17.7,6.6c-8.2,3-16.4,6-24.6,9.1c-9.4,3.6-18.7,7.3-28.1,11.1c-7.7,3-15.3,6-22.9,9.2
	c-9,3.8-17.8,7.8-26.7,11.6c-8.5,3.7-17,7.3-25.4,11.2c-10.4,4.7-20.7,9.5-31,14.3c-11.5,5.4-23,10.9-34.5,16.5
	c-8.2,4-16.3,7.9-24.3,12.1c-8.8,4.7-17.8,8.9-26.6,13.5c-10.5,5.5-20.9,11.3-31.5,16.8c-13.2,6.9-26.1,14.2-39.1,21.5
	c-16,9-31.9,18.2-47.7,27.5c-19.2,11.3-38.2,23-57.2,34.8c-13.9,8.6-27.6,17.7-41.3,26.6c-20.3,13.2-40.2,26.9-60,40.8
	c-19.6,13.6-38.8,27.8-57.9,42.1c-16.1,12-31.9,24.3-47.6,36.9c-21.4,17.1-42.5,34.6-63,52.7c-14,12.3-27.9,24.7-41.4,37.5
	c-0.7,0.7-1.4,1.5-2.5,1.5c-0.1-0.3-0.2-0.7-0.2-1c0-38.1,0-76.3,0-114.4c0-0.8,0-1.7,0-2.5c0.1-1.6,1-2.4,2.6-2.4c1,0,2,0,3,0
	c31.8,0,63.6,0,95.4,0c5.7,0,5.7,0,5.7-5.5c0-27.1,0-54.3,0-81.4c0-1.5,0.4-3-0.4-4.4c-1.8-1.7-4.1-1.2-6.2-1.2
	c-55.1,0-110.2,0-165.4,0c-1.7,0-3.3-0.2-5-0.3c0-0.4-0.1-0.8-0.1-1.2l0.1-0.1c3.1-0.3,4.8-2.2,6.1-4.8l0,0c1.3,0.2,2.1-0.3,2.2-1.7
	c0.6-0.5,1.1-0.9,1.7-1.4c1.5,0.3,2.2-0.3,2.1-1.8l0,0c1.2,0.1,2-0.4,2.2-1.7c0.6-0.5,1.1-0.9,1.7-1.4c1.4,0.3,2.2-0.3,2.2-1.7
	c0.3-0.8,1-1,1.8-1.3c1.5,0.3,2.1-0.5,2.1-1.9c0.2-0.1,0.5-0.3,0.7-0.4c1.7,0.5,2.3-0.1,2.1-1.8c1.3-1,2.7-2,4-3.1
	c1.4,0.3,2.2-0.2,2.3-1.6c0.6-0.4,1.2-0.9,1.7-1.3c1.5,0.3,2.2-0.3,2.1-1.8c1.6-1.1,3.2-2.2,4.7-3.3c1.7,0.5,2.3-0.2,2.1-1.8
	c1.3-1,2.6-2.1,4-3.1c1.5,0.4,2.3-0.2,2.2-1.8l0,0c1.8-0.4,3.8-0.4,4-3c0.2-0.1,0.5-0.2,0.7-0.4c1.6,0.5,2.3-0.1,2.2-1.7
	c1.3-1,2.6-2.1,3.9-3.1c1.3,0.3,2.2-0.1,2.3-1.6c1.5-1.2,3.1-2.3,4.6-3.5c3.1-0.8,5.6-2.8,7.4-5.5c0.2-0.1,0.5-0.2,0.7-0.3
	c1.5,0.3,2.1-0.4,2.1-1.9c0.2-0.1,0.5-0.3,0.7-0.4c1.6,0.5,2.3,0,2.2-1.7l0,0c1.8-0.4,3.9-0.4,4-3c0.2-0.1,0.5-0.2,0.7-0.4
	c2.2,0.6,3.1-0.6,3.3-2.6c0.2-0.1,0.5-0.2,0.7-0.3c2.8-0.6,5.5-1.3,6.3-4.7c0.2-0.1,0.5-0.2,0.7-0.3c1.6,0.5,2.3-0.1,2.2-1.7l0,0
	c3.1-0.6,5.6-2,7-5l0,0c5.6-2,10.1-5.6,14.1-9.8c1.6-1.1,3.1-2.3,4.7-3.4c1.3,0.3,2.2-0.1,2.4-1.5c0.8-0.6,1.7-1.1,2.5-1.7
	c1.6,0.6,2.3-0.1,2.2-1.7l0,0c5.8-1.7,10.1-5.6,14.2-9.7c0.9-0.5,1.7-1.1,2.6-1.6c1.6,0.6,2.3,0,2.2-1.7l0,0
	c2.2,0.3,3.9-0.2,4.1-2.9c0.2-0.1,0.5-0.2,0.7-0.3c2.7,0.3,4.1-1.6,5.4-3.5c0.8-0.6,1.7-1.2,2.5-1.7c1.6,0.7,2.3,0.1,2.3-1.6l0,0
	c3.1-0.5,5.6-2,7.2-4.8c0.5-1.1,1.7-1.1,2.6-1.5c1.6,0.5,2.2-0.2,2.2-1.8c0.2-0.1,0.5-0.3,0.8-0.4c2.5-0.4,6.1-2.7,7.2-4.7l0,0
	c3.7,0.5,5.2-2.6,7.3-4.6c0.2-0.2,0.4-0.3,0.7-0.4c3.2-0.3,5.6-1.9,7.3-4.6c0.2-0.2,0.4-0.3,0.6-0.4c2-0.1,4-0.1,4.2-2.8
	c0.2-0.1,0.5-0.3,0.7-0.4c1.4,0.5,2.3,0.1,2.4-1.4c0.5-1.1,1.7-1.1,2.6-1.5c1.6,0.5,2.3-0.1,2.2-1.7c0.2-0.1,0.5-0.3,0.7-0.4
	c1.4,0.6,2.2,0.2,2.5-1.4c0.9-0.5,1.7-1.1,2.6-1.6c3.4-0.6,5.8-2.2,7.2-4.7c0.2-0.1,0.5-0.2,0.8-0.3c1.4,0.6,2.3,0.1,2.4-1.5
	c0.5-1.1,1.7-1.1,2.6-1.5c1.6,0.5,2.2-0.2,2.2-1.7c0.2-0.1,0.5-0.2,0.7-0.3c1.4,0.5,2.2,0.1,2.4-1.4c0.8-0.7,1.6-1.3,2.6-1.6
	c2.8-0.2,5.2-1.6,7.1-3.4c1.3-1.2,4.3-0.5,4.1-3.4c0.2-0.1,0.5-0.3,0.7-0.4c1.4,0.6,2.2,0.2,2.5-1.3c0.9-0.5,1.7-1,2.6-1.5
	c0.5,0.1,1.1,0.3,1.4,0.1c3.2-1.9,6.6-3.5,9.5-5.6c1.7-1.2,5.1-1.1,5.2-4.3c0.3-0.1,0.5-0.2,0.8-0.3c1.4,0.6,2.2,0.1,2.5-1.3
	c0.8-0.7,1.6-1.3,2.6-1.5c1.6,0.3,3.2,0.6,3.1-1.9c0.3-0.1,0.5-0.3,0.8-0.4c1.4,0.7,2.2,0.3,2.5-1.3c0.8-0.7,1.6-1.3,2.6-1.5
	C1002.1,216.2,1003,215.7,1003.1,214.2z"/>
<path class="st1" d="M2406,930c0,3-4.6,23-6,29.6c-3,13.7-7.5,26.9-14.1,39.4c-4.7,9-10.6,17.1-17.2,24.9
	c-11.6,13.6-26.1,23.4-42.1,30.6c-9.9,4.4-20.3,7.7-31.1,9.6c-5.4,0.9-10.9,1.3-16.2,2.2c-10.9,1.9-21.8,1.8-32.7,1.8
	c-7.8,0-15.4-1.7-23.2-2.3c-5.6-0.4-10.9-2.4-16.6-2.8c-4-0.3-7.6-2.2-11.3-3.4c-9.4-3-18.6-6.6-27.1-11.8
	c-11.8-7.3-22.1-16.1-31.2-26.6c-8.3-9.5-14.4-20.2-19.5-31.4c-4.1-8.9-6.9-18.4-8.9-28.1c-1.5-7.1-2.6-14.3-4.2-21.3
	c-0.2-1-1.2-17.9-1.8-25.3c-1-11.3-0.6-22.6-0.6-33.9c-0.1-153.8-0.1-307.6-0.1-461.5c0-6.7,0-6.7,6.5-6.7c29.7,0,59.3,0,89,0
	c1.6,0,3.3-0.3,5,0.4c1.1,1.7,0.6,3.5,0.6,5.3c0,131.3,0,262.6,0,394c0,32.5,0.2,65-0.1,97.5c-0.1,10,0.7,20,3.3,29.5
	c3.1,11.2,8.6,21.3,19.2,27.9c7.6,4.7,15.7,6.3,24.2,7.7c8.5,1.5,16.5-0.4,24.6-1.5c5.8-0.8,11.3-3.9,16-7.6
	c8.5-6.6,14-15.1,16.8-25.6c2.8-10.3,3.9-20.8,3.9-31.4c0-163.5,0-327,0-490.5c0-1.6,0-3.3,0-4.6c0.4-0.4,0.5-0.6,0.6-0.7
	c0.1-0.1,0.3-0.3,0.4-0.3c31.3-0.1,62.6-0.1,94-0.2V930z"/>
<path class="st2" d="M2406,1214c-3,0-6,0-9,0c-393.7,0-787.4,0-1181.2,0c-2,0-4,0-6,0c1.4-6.1,4-11.9,6-17.8
	c3-8.8,6.1-17.5,9.2-26.2c2.9-8.1,5.8-16.1,8.7-24.2c3.1-8.7,6.1-17.5,9.4-26.1c1.3-3.4,1.9-7,4.1-10.1c2.2,0.1,4.3,0.2,6.5,0.2
	c381.3,0,762.6,0,1143.8,0c2.8,0,5.7,0.1,8.5,0.2C2406,1144.7,2406,1179.3,2406,1214z"/>
<path class="st3" d="M947.5,1214.2c-2.5-0.1-5-0.2-7.5-0.2c-313.3,0-626.7,0-940,0c0-34.7,0-69.3,0-104c1.2,0,2.3,0,3.5,0
	c326.8,0,653.7,0,980.5,0c0,3.6-2,6.6-3.1,9.9c-4.6,13.5-9.8,26.7-14.2,40.2c-2.9,8.6-6.2,17.1-8.8,25.8
	C954.8,1195.4,950.9,1204.7,947.5,1214.2z"/>
<path class="st4" d="M2,1059.9c-0.7,0-1.4,0-2,0.1c0-215.7,0-431.3,0-647c0.7,0.1,1.4,0.2,2.1,0.3c0,3.5-0.1,7-0.1,10.5
	c0,209.2,0,418.5,0,627.7C2.1,1054.3,2,1057.1,2,1059.9z"/>
<path class="st5" d="M1684,0c-2,2-4.8,1.4-7,1.6c-10.4,1-20.8,2.3-31.3,1.1c0.4-1.3,1.3-1.5,2.5-1.6c1,0,2.3,0.3,2.7-1.1
	C1662,0,1673,0,1684,0z"/>
<path class="st1" d="M1985,736.4c0,55.3,0,110.7,0,166c0,9.1-0.6,18.2-1.8,27.2c-0.6,4.6-0.2,9.2-1.1,13.9
	c-2.3,12.7-5,25.2-9.6,37.3c-7.6,20.3-19,38.2-35.5,52.6c-10.8,9.4-22.9,16.6-36.2,22c-7.6,3-15.3,5.6-23.1,7.3
	c-7.5,1.7-15.2,3-23,3.6c-8.7,0.7-17.4,1.7-26.2,1.8c-9.2,0.1-18.2-1.3-27.2-2.2c-9.7-1-19.2-3.2-28.5-6.1
	c-10.5-3.2-20.6-7.8-30.1-13.4c-11-6.4-20.4-14.7-28.9-24.1c-6.9-7.6-12.4-16.2-17.1-25.3c-5.1-9.7-9.1-19.7-11.8-30.2
	c-1.6-6.2-3-12.5-4.3-18.8c-1.4-6.9-1.6-13.8-2.4-20.6c-0.7-6.7-1.4-13.5-1.4-20.3c0.1-105,0.1-210,0.1-315c0-9.3,0-18.7,0-28
	c0-7.1,1.2-14.2,1.7-21.2c0.4-6.1,1-12.1,2.1-18.2c1.9-9.9,4.3-19.5,7.6-29.1c4-11.8,9.6-22.6,16.3-33c5.9-9.1,13.4-17,21.5-24.1
	c7.6-6.6,16.1-12.2,25.2-16.5c7.9-3.7,16-6.9,24.4-9.4c5.7-1.7,11.7-2.1,17.3-4.2c3.2-1.2,6.6-0.7,9.8-1.1c11.7-1.5,23.4-3,35.2-2.2
	c9.7,0.7,19.5,1.3,29.1,3.1c19.7,3.7,38.6,9.8,55.6,21c12.6,8.3,23.2,18.5,32.2,30.7c7.2,9.8,12.8,20.4,17.1,31.7
	c4,10.8,6.9,21.9,9,33.3c1.8,9.5,1.5,19.1,3,28.6c1.1,7.3,0.8,14.6,0.8,21.9C1985,629.1,1985,682.7,1985,736.4z M1778,736.3
	C1778,736.3,1778,736.3,1778,736.3c0,59.8,0.1,119.6-0.1,179.4c0,12.3,2.1,24,7.2,35c4.5,9.8,11.7,17.1,21.8,21.3
	c5.7,2.3,11.6,3.3,17.7,4.2c9.5,1.5,18.5-0.2,27.3-3c9.5-3,17.2-9.1,22.3-18c3.4-5.9,5.8-12,7.2-18.8c1.6-7.8,2.5-15.6,2.5-23.6
	c-0.1-118.8,0-237.6-0.1-356.3c0-12-2.3-23.6-7.4-34.6c-7.1-15.3-19.6-23-35.6-24.8c-9.1-1-18.4-1.3-27.7,1.5
	c-8.7,2.6-16.2,6.6-21.9,13.6c-9.4,11.4-13.2,25.2-13.3,39.5C1777.8,613.4,1778,674.8,1778,736.3z"/>
<path class="st6" d="M1243.2,413.8c0.6-1.9,2.2-1.6,3.7-1.6c5.2,0,10.3,0,15.5,0c26.8,0,53.7,0,80.5,0c1.3,0,2.7-0.1,4,0.1
	c1.7,0.3,2.9,1,3.4,3c2.5,10.1,73.4,279.1,74.7,288.1c0.1,0.5,0.4,0.9,0.6,1.5c2.9,0,76.9-281.4,79.7-291.6c31.7,0,63.4,0,95.7,0
	c-1.1,4.2-125.2,423.9-126.7,427.7c-1.1,2.8-1.3,5.4-1.3,8.3c0,68.3,0,136.7,0,205c0,1.7,0,3.3,0,4.9c-3.6,1.1-92.4,1.5-100.4,0.5
	c-1.2-1.4-0.6-140.4-0.6-208.3c0-5-1.1-9.7-2.5-14.6C1366.8,826.7,1244.8,418.7,1243.2,413.8z"/>
<path class="st7" d="M2,1059.9c0-2.8,0-5.7,0-8.5c0-209.2,0-418.5,0-627.7c0-3.5,0.1-7,0.1-10.5c1.5-0.1,3-0.3,4.5-0.3
	c86.3,0,172.7,0,259,0c1,0,2-0.1,3.3,0.7c0,29.7,0,59.6,0,90.2c-8.9,1.1-18.2,0.3-27.4,0.4c-9.2,0.1-18.3,0-27.5,0
	c-9.3,0-18.7,0-28,0c-9.2,0-18.3,0-27.5,0c-9.3,0-18.7,0-28,0c-9.1,0-18.3,0-27,0c-0.5,0.5-0.7,0.6-0.8,0.7
	c-0.1,0.1-0.3,0.3-0.3,0.4c-0.1,1-0.3,2-0.3,2.9c0,64.2,0.1,128.3,0.1,192.5c0,0.3,0.3,0.6,0.8,1.6c43,0,86.3,0,129.9,0
	c0,30.7,0,60.6,0,91.2c-5.5,0.4-10.9,0.1-16.3,0.2c-5.3,0-10.7,0-16,0c-5.5,0-11,0-16.5,0s-11,0-16.5,0c-5.3,0-10.7,0-16,0
	c-5.5,0-11,0-16.5,0c-5.3,0-10.7,0-16,0c-5.5,0-10.9,0-16.9,0c0,89,0,177.4,0,265.2c-1.3,1.5-2.3,1.3-3.3,1.3c-31.3,0-62.7,0-94,0
	C4,1060.2,3,1060.1,2,1059.9z"/>
<path class="st8" d="M605.1,504.9c24,0,48,0,72,0c4.9,0,5,0.1,5,5c0,74.1,0,148.3,0,222.4c0,1.5,0.3,3-0.5,4.4
	c-1,0.9-2.1,1.7-2.9,2.7c-12.1,16.9-24.2,33.9-34.9,51.8c-0.7,1.1-1.1,2.1,0.4,3.8c11.2,0,23,0,34.8,0c0,36.2,0,72.5,0,108.7
	c-1.7,0.1-3.3,0.3-5,0.3c-63,0-126,0-189.1,0c-1.7,0-3.3-0.2-5-0.3c0-85.6,0-171.1,0-256.7c0-2.2-0.1-4.3-0.2-6.5
	c-0.2-1.5,0.9-2.4,1.8-3.4c5.5-6.5,10.8-13,16.4-19.4c13.1-15,26.3-29.9,40-44.4c18.7-19.8,38-39.1,57.5-58.1c2.6-2.5,5.2-5.1,8-7.4
	C604.4,506.9,605,506.1,605.1,504.9z"/>
<path class="st9" d="M476.7,904.2c-0.1-1.8-0.2-3.7-0.2-5.5c0-83.1,0-166.2,0-249.3c0-2.8,0-5.6,0-8.5c1.1,0,2.3,0.2,3.3-0.5
	c0.1,2.2,0.2,4.3,0.2,6.5c0,85.6,0,171.1,0,256.7C478.9,903.9,477.8,904.1,476.7,904.2z"/>
<path class="st10" d="M374.9,803.6c0,4.5-0.1,9-0.1,13.4c0,24.3,0,48.5,0,72.8c0,1.5-0.1,3-0.2,4.5c-5.8-3-9.8-7.8-12.7-13.6
	c-3.6-7.3-5-15-3.8-23.1c0.8-5.1,1-10.2,3-15.1c0.6-1.5,1.3-3,2.2-4.4c1.9-2.9,3.1-6.1,3.7-9.7c0.9-5.9,3.5-11.4,5.6-17
	C373.6,808.9,373.9,806.1,374.9,803.6z"/>
<path class="st11" d="M682.1,794.6c0.9,1.5,0.6,3.2,0.6,4.9c0,33.5,0,66.9,0,100.4c0,1.5,0.3,3-0.5,4.4c-0.4-0.1-0.8-0.3-1.3-0.4
	c0-36.3,0-72.7,0-109C681.3,794.8,681.7,794.7,682.1,794.6z"/>
<path class="st9" d="M680.9,794.9c0,36.3,0,72.7,0,109c-0.6-0.1-1.3-0.1-1.9-0.2c0-36.2,0-72.5,0-108.7
	C679.6,794.9,680.3,794.9,680.9,794.9z"/>
<path class="st5" d="M1231,102.9c-1.5,1.4-3.2,2.5-5.3,3.2c-5.1,1.9-10.3,3.7-15.1,6.5c-2.3,1.4-4.9,1.5-7.2,2.9
	c-4,2.3-8.5,3.6-12.8,5.3c-0.2,0.1-0.6-0.1-0.9-0.2c1.5-3.6,5.5-3.5,8.3-4.8c10.3-4.7,20.9-8.9,31.3-13.3
	C1230,102.2,1230.6,102.2,1231,102.9z"/>
<path class="st5" d="M1601,5.8c-1.5,2-3.9,2-5.8,2c-4.7,0.1-9.2,1.5-13.9,1.1c-1.8-0.1-3.6,0.2-5.4,0.9c-4,1.5-8.1,1.5-12.3,0.8
	c2.6-2.6,6.1-1.9,9.2-2.4c7.8-1.3,15.7-1.3,23.4-2.9C1597.8,5,1599.6,4.4,1601,5.8z"/>
<path class="st5" d="M1633,2.9c-4.8,1.7-9.8,2.5-14.7,2.9c-3.4,0.2-6.9,0.9-10.2-0.5c0.2-0.3,0.3-0.7,0.5-0.8
	c7.6-0.8,15.2-1.6,22.7-2.4C1632,2.1,1632.6,2.4,1633,2.9z"/>
<path class="st5" d="M1283,82.8c-0.4,0.5-0.6,1.4-1.1,1.6c-5.7,2.2-11.4,4.7-17.4,6.3c-2.3,0.6-4,3.5-6.8,1.9c0.8-1.7,2.5-2,4-2.6
	c6.6-2.4,13.2-4.7,19.6-7.6C1282,82.2,1282.6,82.1,1283,82.8z"/>
<path class="st5" d="M1255.2,93.2c-0.1,1.1-0.6,2.1-1.6,2.3c-7.2,1.4-13.4,5.4-20.4,7.2c-0.1,0-0.3-0.1-0.5-0.1
	c0.3-1,0.9-1.9,1.8-2.2C1241.6,98.4,1247.9,94.5,1255.2,93.2z"/>
<path class="st5" d="M1463,28.8c-0.4,1.3-1.7,1.7-2.7,1.9c-4.4,1.1-9,1.4-13.3,3.2c-0.6,0.3-1.6-0.2-2.4-0.3
	c1.1-2.2,3.4-1.9,5.1-2.4c3.6-1.1,7.4-1.3,10.9-2.8C1461.5,28,1462.4,28,1463,28.8z"/>
<path class="st5" d="M1559,10.9c-5.1,3.4-10.6,3.4-16.4,2.5c3.1-2.3,6.9-1.3,10.3-2.2C1554.8,10.7,1556.9,8.9,1559,10.9z"/>
<path class="st5" d="M985.9,223.9c-0.2,3.2-3.5,3.1-5.2,4.3c-2.9,2.1-6.3,3.7-9.5,5.6c-0.3,0.2-0.9-0.1-1.4-0.1
	c0.9-2.8,3.7-3.1,5.7-4.4C978.7,227.1,982,224.9,985.9,223.9z"/>
<path class="st5" d="M858.1,304.2c-4.2,4.1-8.4,8-14.2,9.7C848,309.8,852.4,305.9,858.1,304.2z"/>
<path class="st5" d="M832.1,322.2c-4,4.3-8.5,7.8-14.1,9.8C820.6,328.5,827.9,323.4,832.1,322.2z"/>
<path class="st5" d="M1187.1,121.2c-0.1,1-0.6,2-1.5,2.3c-4.2,1.4-8.4,2.6-12.1,5.3c-0.4,0.3-1.2-0.2-1.8-0.3c1-2.2,3.1-2.7,5.1-3.4
	C1180.2,123.8,1183.4,121.8,1187.1,121.2z"/>
<path class="st5" d="M1158.1,134.2c-0.1,1.1-0.6,2.1-1.6,2.3c-4,1-7.6,2.8-11,5.1c-0.9,0.6-1.9,0.4-2.9,0
	C1147.2,137.8,1152.6,135.9,1158.1,134.2z"/>
<path class="st5" d="M1394,46.8c-0.2,0.8-0.7,1.6-1.5,1.8c-3.8,1-7.8,1.5-11.5,3.3c-0.6,0.3-1.6-0.2-2.3-0.3
	c0.4-0.8,0.9-1.3,1.8-1.5C1385,48.8,1389.2,46.7,1394,46.8z"/>
<path class="st5" d="M1360,56.9c-0.3,0.4-0.4,1-0.8,1.2c-4.2,2.1-8.7,3.2-13.4,3.6c0.5-2,2.6-1.8,3.9-2.4c3-1.2,6.3-1.5,9.1-3
	C1359.3,56.1,1359.7,56.4,1360,56.9z"/>
<path class="st5" d="M1085,169.9c0,0.9-0.2,1.7-1.1,2c-4,1.5-7.6,3.6-11.3,5.7c-0.6,0.3-1.3,0.2-1.9-0.1
	C1074.8,173.8,1079.7,171.6,1085,169.9z"/>
<path class="st5" d="M1527,15.9c-4.1,2.6-8.5,3.9-13.4,2.6C1517.9,16.7,1522.2,15,1527,15.9z"/>
<path class="st5" d="M1376,51.9c-0.3,0.4-0.4,1-0.8,1.2c-3.9,2.2-8.3,2.6-12.5,3.5c0.4-0.5,0.7-1.2,1.3-1.4
	C1367.9,53.7,1371.7,51.9,1376,51.9z"/>
<path class="st5" d="M1135.2,145.3c-3.9,3.3-8.2,5.8-13.4,6.4C1125.6,148.2,1130.1,146.2,1135.2,145.3z"/>
<path class="st5" d="M1305,74.9c-0.9,1.6-2,3-4.1,2.9c-2,0-3.8,0.3-5.4,1.7c-0.8,0.7-1.8,0.4-2.8,0.1
	C1295.3,77.3,1301.9,74.8,1305,74.9z"/>
<path class="st5" d="M1320,69.9c-0.1,0.2-0.1,0.4-0.2,0.4c-3.6,2.6-7.8,3.7-12.1,4.2C1310.3,72.3,1316.8,69.8,1320,69.9z"/>
<path class="st5" d="M1477,25.8c-3.6,1.6-7,4.2-11.3,2.7C1469.1,26.3,1472.7,24.6,1477,25.8z"/>
<path class="st5" d="M1500,20.9c-3.4,1.9-6.7,4.4-11,2.4C1492.5,21.7,1496,19.9,1500,20.9z"/>
<path class="st5" d="M963.9,236.9c0.2,2.9-2.8,2.2-4.1,3.4c-1.9,1.8-4.3,3.2-7.1,3.4C955.5,239.8,959.7,238.4,963.9,236.9z"/>
<path class="st5" d="M1442,33.8c-2.9,3-6.4,3.8-10.3,2.7C1434.9,35,1438.1,33,1442,33.8z"/>
<path class="st5" d="M1021.1,204.2c-0.3,2.7-3,2.3-4.5,3.2c-2,1.3-3.9,3.8-6.9,3.2C1012.7,207,1016.6,205,1021.1,204.2z"/>
<path class="st5" d="M1541,13.7c-2.5,3.4-6,2.3-9.3,1.9C1534.5,13.4,1537.5,12.5,1541,13.7z"/>
<path class="st5" d="M1405,43.8c-2.8,1.8-5.5,4.2-9.3,2.7C1398.5,44.5,1401.4,42.9,1405,43.8z"/>
<path class="st5" d="M1422,38.9c-2.5,3-5.7,3.7-9.3,2.6C1415.6,40,1418.5,38.2,1422,38.9z"/>
<path class="st5" d="M1046.2,190.3c-2.3,3.3-5.6,4.9-9.5,5.3C1039.2,192.7,1042.6,191.2,1046.2,190.3z"/>
<path class="st5" d="M1169.2,129.3c-2,3.1-5.4,3.4-8.5,4.3C1162.6,130.2,1165.9,129.9,1169.2,129.3z"/>
<path class="st5" d="M787.1,354.2c-1.7,2.7-4.3,4.7-7.4,5.5C781.3,356.6,784,355.1,787.1,354.2z"/>
<path class="st5" d="M1120.2,152.3c-1.5,3.2-4.4,3.8-7.5,4.2C1114.3,153.7,1117.1,152.7,1120.2,152.3z"/>
<path class="st5" d="M1486.2,23.5c-1.9,2.7-4.6,2.8-7.5,2.2C1480.8,23.5,1483.3,22.6,1486.2,23.5z"/>
<path class="st5" d="M1511,18.8c-1.7,3.4-4.6,2-7.3,1.8C1505.8,18.7,1508.2,17.9,1511,18.8z"/>
<path class="st5" d="M905.1,273.2c-2.1,2-3.6,5.1-7.3,4.6C899.6,275.2,902,273.7,905.1,273.2z"/>
<path class="st5" d="M938.9,251.9c-1.5,2.5-3.9,4.1-7.2,4.7C933.2,253.6,936.2,253,938.9,251.9z"/>
<path class="st5" d="M1344,61.9c-2.1,1.9-4.1,4-7.3,2.6C1338.9,63.1,1341,61.2,1344,61.9z"/>
<path class="st5" d="M1329,66.9c-2.1,1.9-4.1,3.9-7.3,2.6C1323.9,68,1326,66.1,1329,66.9z"/>
<path class="st5" d="M913.1,268.2c-1.7,2.7-4.1,4.3-7.3,4.6C907.6,270.2,910,268.6,913.1,268.2z"/>
<path class="st5" d="M897.8,277.9c-1,2-4.6,4.3-7.2,4.7C892.1,279.5,895.1,278.9,897.8,277.9z"/>
<path class="st5" d="M885.1,286.1c-1.6,2.7-4.1,4.3-7.2,4.8C879.5,288.2,882,286.7,885.1,286.1z"/>
<path class="st5" d="M818,332c-1.4,3-3.9,4.4-7,5C812.5,334.1,815,332.8,818,332z"/>
<path class="st5" d="M1291,79.9c-1.5,2.3-3.5,3.5-6.3,2.5C1286.5,81,1288.1,78.8,1291,79.9z"/>
<path class="st5" d="M808,339c-0.7,3.4-3.5,4.1-6.3,4.7C803,341,805.4,339.9,808,339z"/>
<path class="st5" d="M719.9,405.9c-1.2,2.6-3,4.5-6.1,4.8C714.9,407.9,717.2,406.7,719.9,405.9z"/>
<path class="st5" d="M1054.1,186.2c-1.5,2.3-3.7,3.2-6.4,3.5C1048.8,186.6,1051.7,186.8,1054.1,186.2z"/>
<path class="st5" d="M1430,36.8c-1,2.7-3.1,2.3-5.3,1.8C1426.1,36.8,1427.7,35.8,1430,36.8z"/>
<path class="st5" d="M873.1,294.2c-1.3,1.9-2.7,3.8-5.4,3.5C868.8,295.4,870.6,294.2,873.1,294.2z"/>
<path class="st5" d="M1411,41.9c-0.8,2.1-2.3,2.4-4.3,1.7C1407.8,42.1,1408.8,40.5,1411,41.9z"/>
<path class="st5" d="M1335,64.8c-0.7,2.1-2.2,2.5-4.2,1.9C1331.7,65,1332.8,63.7,1335,64.8z"/>
<path class="st5" d="M1141.2,142.2c-0.9,2.5-3.3,2.2-5.3,2.6C1136.8,142.4,1139.1,142.6,1141.2,142.2z"/>
<path class="st5" d="M1110.2,157.3c-0.6,2.5-2.2,3-4.4,2.4C1106.7,157.9,1108.2,157.2,1110.2,157.3z"/>
<path class="st5" d="M867,298c-0.2,2.6-1.9,3.1-4.1,2.9C863.5,298.8,865.2,298.4,867,298z"/>
<path class="st5" d="M1100.1,162.2c-0.5,2.5-2.1,3.2-4.4,2.4C1096.7,162.9,1098.2,162.2,1100.1,162.2z"/>
<path class="st5" d="M1090.1,167.2c-0.5,2.5-2.1,3.2-4.4,2.5C1086.7,167.9,1088.2,167.1,1090.1,167.2z"/>
<path class="st5" d="M1065.1,180.2c-0.5,2.6-2.1,3.1-4.4,2.5C1061.7,180.9,1063.2,180.2,1065.1,180.2z"/>
<path class="st5" d="M1060,183c-0.6,3-3.2,2.4-5.2,2.8C1055.8,183.4,1058.1,183.7,1060,183z"/>
<path class="st5" d="M1036,196c-0.5,3-3.2,2.3-5.1,2.9C1031.7,196.4,1034.1,196.7,1036,196z"/>
<path class="st5" d="M917.9,264.9c-0.2,2.7-2.2,2.7-4.2,2.8C914.5,265.8,916.2,265.4,917.9,264.9z"/>
<path class="st5" d="M797,347c-0.2,2.6-2.2,2.6-4,3C793.3,347.7,795.2,347.4,797,347z"/>
<path class="st5" d="M1008.1,211.2c-0.5,2.4-2.4,2.5-4.3,2.6C1004.6,211.8,1006.3,211.3,1008.1,211.2z"/>
<path class="st5" d="M766,370c-0.2,2.6-2.2,2.6-4,3C762.3,370.7,764.2,370.4,766,370z"/>
<path class="st5" d="M801,344c-0.2,2-1.1,3.2-3.3,2.6C798.3,345.1,799.2,344,801,344z"/>
<path class="st5" d="M1105,159.9c-0.1,2.4-1.6,2.1-3.2,1.8C1102.2,160.1,1103.5,159.9,1105,159.9z"/>
<path class="st5" d="M994.9,218.9c0.1,2.5-1.5,2.2-3.1,1.9C992.2,219.1,993.5,218.9,994.9,218.9z"/>
<path class="st5" d="M1069.9,177.9c0.1,2.5-1.5,2.2-3.1,1.8C1067.2,178.1,1068.5,177.9,1069.9,177.9z"/>
<path class="st5" d="M768.9,367.9c0.1,1.7-0.6,2.2-2.2,1.7C767,368.5,767.7,367.9,768.9,367.9z"/>
<path class="st5" d="M775.1,363.2c-0.1,1.5-1,1.9-2.3,1.6C773.1,363.5,773.8,362.9,775.1,363.2z"/>
<path class="st5" d="M762,373c0.1,1.6-0.7,2.2-2.2,1.8C760,373.6,760.7,372.9,762,373z"/>
<path class="st5" d="M755.8,377.8c0.2,1.6-0.4,2.3-2.1,1.8C754,378.5,754.7,377.9,755.8,377.8z"/>
<path class="st5" d="M749,383c0.1,1.5-0.6,2.2-2.1,1.8C747,383.6,747.7,382.9,749,383z"/>
<path class="st5" d="M745.1,386.1c-0.1,1.5-0.9,2-2.3,1.6C743.1,386.5,743.8,385.9,745.1,386.1z"/>
<path class="st5" d="M738.8,390.8c0.2,1.7-0.5,2.3-2.1,1.8C737,391.5,737.7,390.9,738.8,390.8z"/>
<path class="st5" d="M736,393c0,1.4-0.6,2.2-2.1,1.9C734,393.6,734.7,392.9,736,393z"/>
<path class="st5" d="M732.1,396.2c-0.1,1.4-0.8,2-2.2,1.7C730.1,396.6,730.8,395.9,732.1,396.2z"/>
<path class="st5" d="M728.2,399.3c-0.2,1.3-1,1.8-2.2,1.7C726.1,399.6,726.7,398.9,728.2,399.3z"/>
<path class="st5" d="M726,401c0.1,1.5-0.6,2.1-2.1,1.8C724,401.6,724.7,400.9,726,401z"/>
<path class="st5" d="M722.1,404.2c-0.1,1.4-0.9,1.9-2.2,1.7C720,404.5,720.8,404,722.1,404.2z"/>
<path class="st5" d="M1026.2,201.3c-0.2,1.5-1,1.9-2.4,1.5C1024.1,201.5,1024.8,200.9,1026.2,201.3z"/>
<path class="st5" d="M790,352c0,1.4-0.6,2.2-2.1,1.9C788,352.6,788.7,351.9,790,352z"/>
<path class="st5" d="M921.1,263.1c-0.1,1.6-1,2-2.4,1.4C919.1,263.4,919.9,262.9,921.1,263.1z"/>
<path class="st5" d="M1030.2,199.3c-0.3,1.5-1.1,1.9-2.5,1.3C1028.2,199.4,1028.9,198.8,1030.2,199.3z"/>
<path class="st5" d="M792.9,349.9c0.1,1.7-0.7,2.2-2.2,1.7C791,350.5,791.7,349.9,792.9,349.9z"/>
<path class="st5" d="M810.9,336.9c0.1,1.6-0.7,2.2-2.2,1.7C809.1,337.6,809.7,336.9,810.9,336.9z"/>
<path class="st5" d="M1003.1,214.2c-0.2,1.5-1,2-2.4,1.5C1001.1,214.5,1001.9,213.9,1003.1,214.2z"/>
<path class="st5" d="M839.2,317.3c-0.2,1.4-1.1,1.8-2.4,1.5C837.1,317.5,837.8,316.9,839.2,317.3z"/>
<path class="st5" d="M843.9,313.9c0.1,1.7-0.5,2.3-2.2,1.7C842,314.6,842.7,313.9,843.9,313.9z"/>
<path class="st5" d="M998.1,217.2c-0.2,1.6-1.1,1.9-2.5,1.3C996.1,217.4,996.9,216.9,998.1,217.2z"/>
<path class="st5" d="M1094.2,165.2c-0.2,1.4-0.9,2-2.4,1.5C1092.1,165.6,1092.8,164.9,1094.2,165.2z"/>
<path class="st5" d="M862.9,300.9c0.1,1.6-0.5,2.3-2.2,1.7C861.1,301.5,861.7,300.9,862.9,300.9z"/>
<path class="st5" d="M877.9,290.9c0.1,1.7-0.6,2.3-2.3,1.6C876.1,291.5,876.8,290.9,877.9,290.9z"/>
<path class="st5" d="M889.9,282.9c0.1,1.6-0.6,2.3-2.2,1.8C888,283.5,888.7,282.9,889.9,282.9z"/>
<path class="st5" d="M989.2,222.2c-0.3,1.5-1.1,1.9-2.5,1.3C987.1,222.5,987.9,221.9,989.2,222.2z"/>
<path class="st5" d="M950.2,245.2c-0.2,1.5-1.1,1.9-2.4,1.4C948.1,245.5,948.9,244.9,950.2,245.2z"/>
<path class="st5" d="M926,260c0,1.6-0.7,2.2-2.2,1.7C924.1,260.5,924.7,259.9,926,260z"/>
<path class="st5" d="M929.1,258.2c-0.2,1.5-1.1,1.9-2.5,1.4C927.1,258.4,927.9,257.9,929.1,258.2z"/>
<path class="st5" d="M967.1,235.2c-0.2,1.5-1.1,1.9-2.5,1.3C965.1,235.4,965.9,234.9,967.1,235.2z"/>
<path class="st5" d="M942.1,250.1c-0.1,1.6-1,2-2.4,1.5C940.1,250.5,940.9,249.9,942.1,250.1z"/>
<path class="st5" d="M947,247c0,1.5-0.7,2.2-2.2,1.7C945.1,247.6,945.7,246.9,947,247z"/>
<path class="st5" d="M713.8,412.1c-0.4,0-0.8,0-1.2,0.1c0.1-0.6,0.4-1.1,1.1-1.3C713.7,411.2,713.8,411.6,713.8,412.1z"/>
<path class="st7" d="M375.2,420.8c0-2.3,0-4.6,0-6.9c3.5-1.3,93.5-1.7,100.6-0.5c0.7,0.7,0.5,1.5,0.5,2.3c0,72,0,593,0,642.8
	c0,0.3-0.2,0.6-0.3,1.3c-33.4,0-66.9,0-100.3,0c-1-2.1-0.4-4-0.4-5.8C375.2,1002.6,375.2,545.7,375.2,420.8z"/>
<path class="st7" d="M884.1,412.3c2.1,0,4.4-0.5,6.2,1.2c0.8,1.4,0.4,2.9,0.4,4.4c0,27.1,0,54.3,0,81.4c0,5.4,0,5.5-5.7,5.5
	c-31.8,0-63.6,0-95.4,0c-1,0-2-0.1-3,0c-1.6,0-2.5,0.9-2.6,2.4c-0.1,0.8,0,1.7,0,2.5c0,38.1-0.4,498.6-0.3,548.7
	c0,0.3-0.2,0.6-0.3,0.9c-3.6,1.2-95.9,1.3-100.7,0c0-2,0-4.2,0-6.3c0-48.1-0.7-469.1-0.7-543.3c0-4.9-0.1-5-5-5
	c-24,0-92.4-0.6-100-0.6c0-30.5,0-60.5,0-90.4c1.1-1.2,2.3-0.9,3.4-0.9C622.7,412.9,829,412.3,884.1,412.3z"/>
</svg>
